<svg width="506" height="434" viewBox="0 0 506 434" fill="none" xmlns="http://www.w3.org/2000/svg">
<path d="M17.317 393.908C9.20124 395.572 -0.944014 399.833 0.0704563 407.401C0.882252 413.183 8.00376 416.105 14.1316 417.709C41.5228 424.83 70.1323 426.859 98.538 428.584C230.14 436.598 363.79 438.993 492.368 412.23C497.218 411.215 502.757 409.633 504.542 405.412C506.328 401.192 503.589 396.871 499.713 394.517C495.596 392.417 491.08 391.213 486.464 390.987C470.719 389.221 454.994 387.436 439.229 385.955C423.463 384.473 407.576 383.174 391.709 382.079C375.843 380.983 359.874 380.05 343.947 379.401C328.019 378.751 312.172 378.204 296.265 377.899C280.357 377.595 264.47 377.514 248.563 377.595C243.44 377.596 238.332 377.052 233.325 375.972C227.389 374.953 221.369 374.511 215.348 374.653C199.644 374.558 183.939 374.835 168.234 375.485C152.53 376.134 136.92 377.169 121.405 378.589C105.782 380.009 90.2262 381.822 74.7381 384.027C59.2496 386.231 43.8566 388.788 28.5576 391.697C24.7838 392.406 21.0706 393.258 17.317 393.908Z" fill="#EBEBEB"/>
<path d="M106.222 135.102C105.775 136.421 126.512 177.062 126.086 204.88C125.659 232.697 121.236 249.944 122.555 248.159C123.874 246.373 149.156 237.567 149.156 201.796C149.156 166.024 139.01 145.247 130.895 141.737C122.778 138.227 106.222 135.102 106.222 135.102Z" fill="#808080"/>
<path d="M130.509 306.472C130.509 306.472 130.894 275.104 164.515 273.338C198.136 271.573 215.24 270.701 217.512 284.823C219.785 298.945 231.209 309.171 210.451 308.237C189.695 307.304 130.509 306.472 130.509 306.472Z" fill="#808080"/>
<path d="M219.055 378.018C223.447 378.018 227.008 381.58 227.008 385.972C227.008 390.365 223.447 393.926 219.055 393.926C214.662 393.926 211.101 390.365 211.101 385.972C211.101 381.58 214.662 378.018 219.055 378.018Z" fill="#808080"/>
<path d="M171.373 376.7C175.575 376.7 178.982 380.106 178.982 384.309C178.982 388.511 175.575 391.917 171.373 391.917C167.171 391.917 163.764 388.511 163.764 384.309C163.764 380.106 167.171 376.7 171.373 376.7Z" fill="#808080"/>
<path d="M129.637 379.013C134.387 379.013 138.239 382.865 138.239 387.616C138.239 392.367 134.387 396.219 129.637 396.219C124.885 396.219 121.033 392.367 121.033 387.616C121.033 382.865 124.885 379.013 129.637 379.013Z" fill="#808080"/>
<path d="M100.459 135.366C112.024 159.126 121.743 184.427 122.393 211.149C122.586 223.996 121.141 236.814 118.091 249.295C116.467 256.234 114.479 263.092 112.247 269.869C109.902 276.033 108.209 282.425 107.195 288.942C106.269 295.099 108.094 301.353 112.187 306.046C116.975 311.139 124.178 312.437 130.854 312.803C146.862 313.716 163.033 313.188 179.062 313.026C187.442 313.026 195.842 312.762 204.222 312.559C208.158 312.559 212.115 312.559 216.031 312.214C219.69 312.166 223.067 310.234 224.958 307.101C228.57 301.136 227.961 293.466 224.958 287.379C221.718 281.215 216.472 276.341 210.086 273.561C194.909 266.541 176.323 266.338 160.274 270.092C144.894 273.703 129.088 282.692 126.065 299.573C125.458 302.051 126.892 304.571 129.332 305.315C131.811 305.977 134.362 304.521 135.053 302.049C136.021 296.279 138.97 291.027 143.393 287.196C148.549 283.277 154.53 280.585 160.882 279.324C174.069 276.007 187.91 276.351 200.915 280.318C206.252 282.043 211.79 284.883 214.854 289.793C216.145 291.745 216.971 293.966 217.269 296.287C217.431 297.727 217.451 301.014 216.173 302.069C215.686 302.455 213.86 302.211 213.211 302.231L208.179 302.374C204.12 302.495 200.063 302.596 196.005 302.678C188.294 302.84 180.577 302.976 172.854 303.084C165.468 303.084 158.103 303.246 150.717 303.266C143.331 303.286 136.271 303.672 129.108 303.266C124.502 302.982 119.085 301.765 117.077 297.078C115.23 292.756 116.447 287.44 117.624 283.118C119.328 276.828 121.682 270.721 123.529 264.451C125.375 258.181 126.998 251.75 128.277 245.298C130.639 233.841 131.695 222.154 131.421 210.459C130.549 182.297 120.323 155.9 107.986 130.902C105.45 125.769 97.8415 130.273 100.296 135.406L100.459 135.366Z" fill="#333333"/>
<path d="M105.978 137.415C113.952 139.688 122.108 142.792 128.52 148.209C134.932 153.627 138.665 161.581 140.552 169.859C144.61 187.329 145.543 207.659 137.61 224.196C135.688 228.345 133.232 232.226 130.306 235.741C127.082 239.22 123.573 242.423 119.816 245.318C115.859 248.666 120.891 254.164 125.051 252.115C133.167 248.057 139.943 239.576 144.285 231.723C149.083 222.686 151.912 212.736 152.584 202.526C153.332 191.559 152.485 180.542 150.068 169.819C148.039 160.302 144.347 150.847 137.123 144.07C129.007 136.543 118.375 133.134 107.885 130.496C105.953 130.046 104.022 131.246 103.572 133.178C103.147 135.002 104.194 136.846 105.978 137.415Z" fill="#333333"/>
<path d="M169.567 309.069C168.979 336.38 168.674 332.224 168.35 359.535L171.84 354.969C160.72 356.491 149.521 357.992 138.523 359.717C133.735 360.468 129.413 362.132 128.074 367.285C127.12 371.039 128.845 375.015 127.769 378.668C126.024 384.552 135.358 387.129 136.961 381.204C137.955 377.592 137.103 374.245 136.961 370.613C136.876 370.044 136.946 369.462 137.164 368.929C136.636 369.943 136.92 369.213 137.732 369.233C140.134 369.115 142.522 368.802 144.874 368.3C154.695 366.94 164.474 365.561 174.274 364.12C176.33 363.541 177.754 361.67 177.764 359.535C177.622 332.224 177.52 336.38 177.094 309.069C176.941 306.968 175.114 305.39 173.012 305.543C171.125 305.681 169.624 307.182 169.486 309.069H169.567Z" fill="#333333"/>
<path d="M172.367 362.639C186.41 364.41 200.339 366.991 214.083 370.369L210.431 365.58C211.003 371.556 212.653 377.379 215.301 382.766C216.446 384.671 218.713 385.589 220.86 385.019C221.264 384.886 221.658 384.723 222.037 384.531C223.908 383.36 224.797 381.106 224.229 378.972C223.579 376.517 222.504 374.163 221.814 371.708C221.124 369.253 220.637 366.758 220.13 364.262C219.676 362.569 218.353 361.247 216.66 360.792C202.315 358.175 188.031 355.638 173.544 353.975C168.654 353.427 167.457 361.969 172.387 362.639H172.367Z" fill="#333333"/>
<path d="M167.903 361.32L168.492 368.929L168.796 372.824C168.836 374.352 168.958 375.875 169.161 377.39C169.625 380.266 172.333 382.222 175.209 381.758C175.324 381.74 175.439 381.717 175.553 381.691C178.088 381.023 179.602 378.425 178.932 375.89C178.84 375.537 178.706 375.196 178.535 374.873C177.374 372.848 174.813 372.111 172.753 373.21C171.288 374.074 170.582 375.81 171.028 377.45C171.356 378.69 172.324 379.658 173.564 379.987L171.961 379.054L171.007 377.41V375.381C171.299 374.091 172.326 373.095 173.625 372.844H175.877L177.906 373.981L179.083 376.01C178.908 375.385 178.641 374.791 178.292 374.245L178.779 375.401C178.683 375.166 178.615 374.922 178.576 374.671L178.758 375.949C178.17 371.1 177.845 366.21 177.399 361.34C177.371 360.098 176.879 358.91 176.019 358.013C174.185 356.186 171.218 356.192 169.391 358.026C168.515 358.906 168.023 360.098 168.025 361.34L167.903 361.32Z" fill="#333333"/>
<path d="M131.726 377.187C126.525 375.857 121.189 378.81 119.552 383.923C117.726 388.366 117.929 394.514 121.764 397.882C125.662 400.956 130.829 401.898 135.561 400.399C140.714 399.03 144.255 394.305 144.123 388.975C144.605 385.899 143.647 382.772 141.526 380.494C140.337 379.436 138.875 378.732 137.306 378.465C136.282 378.252 135.225 378.252 134.201 378.465C134.831 378.303 131.99 379.256 133.552 378.81C133.068 378.948 132.614 379.175 132.213 379.479C130.806 380.335 130.359 382.17 131.215 383.578C131.326 383.76 131.457 383.931 131.604 384.085L131.888 384.349C131.28 383.801 133.349 385.465 132.558 384.836L132.903 385.12C133.159 385.322 133.438 385.492 133.735 385.627C134.263 385.87 134.871 386.053 135.378 386.337C134.465 385.79 134.851 386.094 135.074 386.216L135.378 386.398C135.662 386.56 135.541 386.398 135.033 386.074C135.138 386.199 135.254 386.314 135.378 386.418C134.851 386.134 134.932 385.708 135.155 386.134C135.378 386.56 135.013 385.85 135.033 385.79C135.054 385.728 135.175 386.276 135.216 386.418L135.338 386.926C135.459 387.514 135.338 385.749 135.338 386.682V387.879V389.219C135.307 389.42 135.307 389.626 135.338 389.827C135.236 389.056 135.459 389.117 135.338 389.543C135.3 389.735 135.252 389.924 135.196 390.111C135.196 390.253 134.81 391.166 135.196 390.355C135.581 389.543 135.013 390.618 134.912 390.801C134.526 391.491 135.52 390.132 135.155 390.517L134.871 390.842C133.775 391.552 134.485 391.227 134.871 390.842L133.146 391.836C133.573 391.653 134.263 391.186 133.146 391.836C132.816 391.952 132.477 392.04 132.132 392.1C131.956 392.163 131.771 392.196 131.584 392.201C131.584 392.201 132.781 392.1 132.051 392.201H130.914H129.981H129.535C130.61 392.201 130.286 392.323 129.94 392.201L128.743 391.937L128.236 391.755L127.851 391.613C128.419 391.876 128.561 391.917 128.277 391.775C127.993 391.633 127.587 391.389 127.242 391.146C126.897 390.902 127.526 391.146 127.485 391.328L127.1 390.964C126.775 390.659 127.1 390.618 127.242 391.186C127.162 391.022 127.067 390.866 126.958 390.72C126.868 390.569 126.787 390.413 126.714 390.253C126.938 390.842 126.978 390.902 126.816 390.496V390.233C126.7 389.839 126.605 389.439 126.532 389.036V389.279C126.521 389.09 126.521 388.9 126.532 388.711V387.493V387.007V386.641V387.027C126.646 386.628 126.735 386.221 126.796 385.81C126.796 385.668 126.796 385.505 126.938 385.343V385.12C127.059 384.754 126.938 384.816 126.836 385.302C126.898 385.154 126.973 385.012 127.059 384.876L127.181 384.653C127.384 384.348 127.343 384.389 127.039 384.775C127.258 384.445 127.541 384.162 127.871 383.943C127.871 383.943 127.141 384.369 127.749 384.085C127.749 384.085 128.419 383.74 128.033 383.902C127.648 384.065 128.48 383.781 128.459 383.781C128.439 383.781 129.352 383.659 128.906 383.781C128.459 383.902 129.373 383.781 129.352 383.781H130.103L131.787 383.882C133.62 383.871 135.103 382.388 135.115 380.554C135.051 378.743 133.598 377.29 131.787 377.227L131.726 377.187Z" fill="#333333"/>
<path d="M175.634 374.509C170.947 372.642 166.564 375.625 163.683 379.114C161.943 380.798 160.652 382.89 159.93 385.201C159.348 388.221 160.351 391.329 162.587 393.439C166.155 397.076 171.396 398.524 176.324 397.233C180.806 395.972 184.219 392.331 185.19 387.778C185.699 385.048 185.232 382.226 183.871 379.804C182.49 377.12 179.803 375.357 176.79 375.158C175.282 375.189 173.932 376.103 173.341 377.491C172.801 378.88 173.1 380.456 174.112 381.549C174.518 382.036 174.964 382.482 175.39 382.929C175.816 383.376 174.883 382.178 175.126 382.604L175.39 382.97C175.573 383.254 175.756 383.538 175.918 383.842C175.978 383.981 176.045 384.117 176.121 384.248C176.121 384.248 175.735 383.193 175.918 383.822C176.021 384.106 176.102 384.398 176.162 384.694C176.324 385.323 176.162 384.248 176.162 384.146C176.141 384.335 176.141 384.525 176.162 384.714C176.192 385.059 176.192 385.405 176.162 385.749L176.344 384.512C176.287 384.897 176.199 385.277 176.08 385.648C175.918 386.175 175.634 386.257 176.222 385.384C176.121 385.526 176.06 385.729 175.958 385.891C175.857 386.053 175.552 386.561 175.35 386.885C175.147 387.21 176.121 385.973 175.593 386.561L175.106 387.068L174.68 387.454C174.254 387.839 175.654 386.804 175.005 387.21L173.99 387.819C173.239 388.245 175.106 387.454 174.274 387.697L173.706 387.88C173.246 388.004 172.778 388.098 172.306 388.164L173.585 388.002C172.802 388.093 172.013 388.093 171.231 388.002L172.489 388.164C172.017 388.098 171.549 388.004 171.089 387.88L170.46 387.697C170.277 387.697 169.547 387.332 170.277 387.697C171.008 388.062 170.277 387.697 170.115 387.596L169.445 387.21L168.898 386.825C168.451 386.541 169.648 387.535 169.1 386.967L168.634 386.5C168.107 385.911 168.634 386.5 168.776 386.703C168.663 386.465 168.534 386.234 168.391 386.013C168.573 386.257 168.776 386.946 168.553 386.236C168.329 385.526 168.553 387.251 168.553 386.459V386.195C168.553 385.831 168.553 385.851 168.553 386.195C168.553 386.541 168.553 386.601 168.553 386.195V385.932C168.553 385.668 168.715 385.404 168.817 385.141C168.553 385.648 169.04 384.451 168.817 385.141C169.08 384.633 169.019 384.714 169.121 384.511C169.222 384.309 169.567 383.7 169.81 383.294L170.277 382.604C170.277 382.604 170.784 381.874 170.48 382.3C170.176 382.726 170.642 382.097 170.704 382.016L171.17 381.508L171.677 381.021C172.286 380.433 171.13 381.346 171.819 380.9L172.387 380.555C172.712 380.372 172.854 380.332 172.387 380.555L173.321 380.149H173.138C173.31 380.111 173.479 380.064 173.645 380.007C174.376 379.763 173.077 380.007 173.849 380.007C174.619 380.007 173.402 379.865 174.092 380.007C175.647 380.425 177.251 379.524 177.703 377.978C178.076 376.434 177.189 374.865 175.674 374.387L175.634 374.509Z" fill="#333333"/>
<path d="M218.466 376.071C216.431 376.254 214.456 376.855 212.663 377.836C210.85 378.959 209.322 380.487 208.2 382.3C206.73 384.568 206.226 387.328 206.8 389.97C207.656 392.514 209.389 394.672 211.689 396.057C213.833 397.417 216.279 398.225 218.811 398.41C221.35 398.656 223.905 398.148 226.156 396.949C230.168 394.745 232.541 390.418 232.243 385.851C232.064 382.741 230.491 379.878 227.962 378.059C225.479 376.108 222.138 375.643 219.217 376.842C217.686 377.779 217.167 379.757 218.04 381.326C218.274 381.774 218.583 382.178 218.953 382.523L219.704 383.112L219.298 382.807C219.404 382.913 219.519 383.008 219.643 383.091C219.96 383.372 220.293 383.636 220.637 383.883L220.353 383.66C220.881 384.065 221.388 384.43 221.936 384.776L222.342 385.039C222.788 385.303 221.652 384.43 222.017 384.776C222.382 385.12 222.484 385.202 222.686 385.445C222.89 385.688 223.194 386.074 222.686 385.445C222.179 384.816 222.524 385.222 222.686 385.445C222.849 385.668 222.97 385.952 223.092 386.216L222.626 385.1C222.822 385.582 222.958 386.086 223.032 386.601L222.869 385.344C222.94 385.93 222.94 386.523 222.869 387.109L223.032 385.851C222.946 386.508 222.769 387.15 222.504 387.758L222.991 386.622C222.698 387.294 222.324 387.928 221.875 388.509L222.626 387.535C222.259 388.003 221.836 388.426 221.368 388.793L222.342 388.042C221.842 388.398 221.304 388.697 220.739 388.935L221.895 388.448C221.091 388.789 220.245 389.02 219.379 389.138L220.657 388.975C219.775 389.077 218.883 389.077 218 388.975L219.237 389.138C218.347 389.001 217.471 388.783 216.62 388.488C215.768 388.204 217.634 388.955 216.823 388.488L216.153 388.164L215.119 387.575C214.733 387.312 214.591 386.947 215.24 387.575L214.713 387.089C214.611 386.967 214.124 386.439 214.591 386.987C215.057 387.535 214.591 386.987 214.591 386.825C214.145 386.236 214.794 387.657 214.591 386.967C214.584 386.838 214.584 386.709 214.591 386.581V386.967V386.297V385.912V386.277C214.664 385.873 214.759 385.473 214.875 385.08L215.057 384.552C215.057 384.309 215.057 384.41 214.936 384.877C214.975 384.772 215.022 384.67 215.078 384.572C215.257 384.207 215.46 383.855 215.687 383.517C215.809 383.335 216.072 382.726 215.687 383.517C215.786 383.358 215.909 383.214 216.052 383.091C216.315 382.787 216.62 382.503 216.904 382.219L217.391 381.773C217.391 381.773 217.939 381.367 217.614 381.57C217.29 381.773 217.817 381.448 217.878 381.408C217.939 381.367 218.568 381.062 218.06 381.265C218.483 381.099 218.917 380.964 219.359 380.86C220.681 380.471 221.439 379.084 221.05 377.762C220.742 376.711 219.784 375.984 218.69 375.97L218.466 376.071Z" fill="#333333"/>
<path d="M223.305 191.537C211.735 183.211 200.89 174.686 200.782 174.6C199.314 173.445 199.06 171.317 200.216 169.849C201.371 168.38 203.498 168.127 204.967 169.282C205.07 169.364 215.428 177.506 226.639 185.599C245.059 198.896 250.765 201.255 252.341 201.66C255.702 198.379 264.391 176.639 273.207 145.534C273.716 143.737 275.586 142.694 277.385 143.202C279.183 143.711 280.227 145.582 279.718 147.38C279.676 147.526 275.53 162.121 270.57 176.615C260.716 205.412 256.645 208.146 253.319 208.478C253.091 208.501 252.841 208.527 252.539 208.527C250.211 208.527 244.84 207.036 223.305 191.537Z" fill="#333333"/>
<path d="M163.475 227.344C158.289 244.678 148.189 270.474 147.097 288.627C172.21 291.63 198.552 285.214 223.667 288.217C220.118 250.683 221.482 201.684 226.669 164.286C225.168 166.197 223.393 167.835 221.482 169.336C219.572 169.609 218.343 170.019 216.432 170.155C212.611 170.564 207.834 172.885 204.012 172.748C196.505 172.475 186.405 169.063 179.171 166.743C175.623 165.651 174.531 161.693 170.982 160.464C166.614 159.099 168.662 162.375 168.935 164.832C169.89 173.021 170.027 181.211 169.344 189.4C168.525 198.545 166.205 218.608 163.475 227.344Z" fill="#733E90"/>
<path d="M171.528 158.69C172.62 165.924 172.892 173.158 172.346 180.392C171.801 189.536 170.572 198.681 169.071 207.689C165.932 226.661 161.701 245.36 156.924 263.922C154.876 271.975 152.829 280.301 150.099 288.217C149.553 289.719 147.779 290.401 146.414 289.719C145.186 289.172 144.503 287.944 144.64 286.579C146.414 279.618 148.598 272.657 150.372 265.696C152.692 256.961 154.876 248.089 156.924 239.218C161.155 221.065 164.976 202.503 166.615 183.804C167.297 175.887 167.843 167.289 166.751 159.782C166.478 158.417 167.16 157.052 168.526 156.643C169.754 156.507 171.118 157.325 171.528 158.69Z" fill="#333333"/>
<path d="M229.399 170.974C227.351 185.715 226.669 200.729 225.987 215.742C225.441 231.711 225.304 247.817 225.441 263.786C225.441 271.975 225.577 280.164 225.85 288.353C225.85 290.674 223.803 291.766 221.756 291.493C212.747 290.264 203.193 290.674 194.049 291.083C183.676 291.493 173.302 292.312 162.793 292.584C157.743 292.721 152.693 292.721 147.643 292.312C145.868 292.312 144.503 290.811 144.503 289.172C144.503 287.398 146.005 286.033 147.643 286.033C167.706 287.398 187.77 284.259 207.834 284.395C213.021 284.395 218.343 284.669 223.53 285.487L219.435 288.626C218.753 257.235 218.343 225.842 221.073 194.587C221.756 186.261 222.848 178.072 224.212 169.882C224.622 168.517 226.123 167.699 227.488 167.972C228.853 168.108 229.672 169.609 229.399 170.974Z" fill="#333333"/>
<path d="M199.156 168.572L202.604 184.358L204.196 188.073L193.053 238.482L208.442 257.452L221.707 238.747L212.156 187.277L217.595 182.899L220.115 169.368L199.156 168.572Z" fill="#BEBEBE"/>
<path d="M206.849 188.869C204.86 197.093 203.4 205.451 201.808 213.808C201.012 218.318 200.217 222.828 199.42 227.206C199.023 229.196 198.757 231.186 198.359 233.043C198.094 234.768 197.165 236.89 198.227 238.482C199.951 241.135 202.206 243.655 204.063 246.176L206.982 250.023C207.778 251.085 208.838 253.074 209.9 253.472L208.308 253.074C208.175 253.074 207.91 253.472 208.175 253.207C208.308 253.074 208.441 252.809 208.574 252.676C208.971 252.145 209.369 251.615 209.767 251.084C210.696 249.89 211.492 248.696 212.421 247.502C214.145 245.115 215.869 242.859 217.461 240.472C218.124 239.676 218.523 238.747 218.523 237.686C218.39 236.625 218.257 235.564 217.992 234.635C217.727 232.778 217.329 230.92 217.064 229.196C215.604 220.175 214.41 211.155 212.819 202.267C212.022 197.889 210.829 193.512 210.033 189.134C209.634 187.542 210.696 186.082 212.288 185.685C213.747 185.42 215.206 186.215 215.604 187.542C217.064 191.654 217.992 195.899 218.523 200.144C219.451 205.185 220.115 210.094 220.911 215.134C221.574 219.91 222.37 224.686 223.166 229.329C223.431 231.318 223.829 233.308 224.227 235.165C225.023 238.217 224.36 241.4 222.635 243.921C220.911 246.574 219.186 249.094 217.329 251.748C215.737 254.003 214.012 257.319 211.492 258.779C210.033 259.707 208.309 259.707 206.716 258.911C205.39 257.983 204.196 256.788 203.4 255.329L197.563 247.502C195.706 245.115 193.318 242.595 192.257 239.676C191.329 237.155 192.257 234.37 192.655 231.849C193.584 227.339 194.38 222.828 195.308 218.451C197.298 208.104 199.288 197.491 203.135 187.542C203.665 186.481 204.859 186.083 205.921 186.481C206.452 187.144 206.982 187.94 206.849 188.869Z" fill="#333333"/>
<path d="M201.941 171.093C202.34 173.082 202.737 175.072 203.135 177.195C203.4 178.787 203.665 180.511 204.064 182.103C204.196 182.501 204.329 182.899 204.461 183.164C204.196 182.634 204.727 183.562 204.727 183.695C204.329 183.032 205.257 184.226 204.727 183.827C204.992 183.96 204.992 183.96 205.523 184.093H205.656H206.319H207.646C208.442 184.093 209.238 184.093 210.034 183.96C210.166 183.96 211.095 183.827 210.564 183.96C210.962 183.96 211.36 183.827 211.758 183.695C211.89 183.695 212.951 183.297 212.421 183.43C212.819 183.297 213.084 183.032 213.482 182.899C213.35 183.032 213.35 183.032 213.615 182.766L214.013 182.368C214.278 182.103 214.278 182.103 214.146 182.236C214.279 182.103 214.411 181.97 214.411 181.705C214.544 181.573 214.544 181.307 214.677 181.175C214.809 181.042 214.809 180.776 214.677 181.042C214.809 180.644 214.942 180.379 215.074 179.98C215.207 179.583 215.207 179.317 215.34 178.919C215.34 178.787 215.605 177.725 215.473 178.123C215.605 177.195 215.605 176.133 215.737 175.205C215.87 172.95 216.003 170.429 217.462 168.572C218.259 167.776 219.452 167.511 220.513 168.042C221.575 168.572 222.238 169.501 222.238 170.562C222.238 171.358 222.105 172.287 221.973 173.082C221.84 174.011 221.84 174.807 221.707 175.603C221.575 177.327 221.442 179.052 221.044 180.777C220.514 184.093 218.259 187.011 215.208 188.603C212.157 189.797 208.973 190.328 205.789 189.93C203.799 189.93 201.942 189.134 200.483 187.675C199.421 186.481 198.758 185.021 198.36 183.43C197.697 179.45 197.299 175.471 197.033 171.491C196.768 169.103 201.411 168.439 201.941 171.093Z" fill="#333333"/>
<path d="M261.88 2.24577C260.486 6.17582 257.697 9.47217 254.02 11.5006C249.837 13.6557 245.146 14.5434 240.455 14.0359C235.131 13.2755 229.806 11.8808 224.735 9.97913C219.918 8.33096 215.1 6.42931 210.029 6.04908C200.267 5.28864 191.012 10.1059 183.279 15.6841C168.319 26.5871 158.05 42.6875 154.501 60.9436C153.867 64.3661 148.669 62.8452 149.43 59.5489C153.106 42.434 162.361 26.8405 175.799 15.5574C183.025 9.47217 191.393 4.27417 200.521 1.86555C205.592 0.597601 210.917 0.47086 215.987 1.48533C221.059 2.49926 225.876 4.40091 230.82 6.04908C236.018 7.824 241.977 9.47217 247.554 8.33096C251.485 7.57052 256.682 5.28864 258.331 1.23185C259.218 -0.923832 262.895 -0.0361018 261.88 2.24577Z" fill="#333333"/>
<path d="M261.928 4.77136C261.928 4.77136 253.688 21.506 230.361 11.7443C206.907 1.98252 187.891 5.15158 171.41 26.5767C155.056 48.0019 152.647 65.2436 152.647 65.2436C152.647 65.2436 141.364 60.1728 137.814 77.2877C134.264 94.4021 147.195 94.7828 147.195 94.7828C147.195 94.7828 150.745 155.255 181.932 166.158C213.119 177.061 254.448 160.326 264.21 135.732C273.972 111.137 280.184 80.3306 266.999 58.1444C253.687 35.9583 235.051 24.5489 230.36 23.7879C225.67 23.0275 241.644 24.1681 252.166 22.6472C262.689 21.1258 261.928 4.77136 261.928 4.77136Z" fill="white"/>
<path d="M154.295 70.8217C153.914 67.6521 150.871 64.7365 147.449 66.1312C144.153 67.5254 141.49 71.9629 140.349 75.2587C138.828 79.062 138.828 83.2461 140.222 87.0494C140.856 88.697 141.87 90.0918 143.392 91.1057C144.406 91.7399 145.927 92.2469 146.941 91.233C148.59 89.458 151.759 91.7399 150.364 93.8951C147.702 97.8251 142.758 97.0641 139.588 94.2753C136.419 91.4864 134.771 86.5419 134.644 82.2316C134.644 77.2871 136.039 72.4699 138.828 68.2864C141.11 64.6098 144.786 60.9332 149.477 60.9332C154.675 60.9332 158.605 65.2435 159.238 70.188C159.493 72.8501 154.675 73.4838 154.295 70.8217Z" fill="#333333"/>
<path d="M241.643 33.1694C238.474 31.141 234.924 29.7463 231.248 29.2394C230.36 29.1126 229.346 29.1126 228.459 28.9859H227.445C227.825 28.9859 226.557 29.1126 226.81 29.1126C227.317 29.2394 226.684 27.7179 227.064 27.8447C227.698 27.9714 228.585 28.7324 229.219 28.8592C232.389 30.0004 235.558 31.141 237.333 34.3106C238.854 37.607 238.727 41.4103 236.826 44.4526C232.262 52.0592 223.007 50.5378 215.654 50.1576C208.175 49.6506 200.06 49.6506 193.088 52.947C185.481 56.623 179.396 63.2157 173.437 69.0474C171.916 70.4415 169.127 68.5399 170.395 66.765C175.085 60.0461 180.157 53.7074 187.256 49.2699C194.356 44.9596 202.977 43.6916 211.471 43.9457C215.654 44.0724 219.965 44.7061 224.148 44.7061C227.191 44.7061 230.868 43.8189 232.136 40.6493C232.643 39.3814 232.643 38.1139 232.262 36.846C231.629 35.8315 230.614 35.0711 229.474 34.8176C226.304 33.5496 221.486 32.1555 221.613 27.8447C221.867 22.9007 227.952 22.774 231.502 23.1542C236.192 23.6612 240.757 25.3093 244.686 27.972C247.602 30.2533 244.813 35.1978 241.643 33.1694Z" fill="#333333"/>
<path d="M236.255 70.9797C238.41 75.6701 239.678 80.8681 239.931 86.0661C239.804 87.5876 238.537 88.7288 236.888 88.7288C235.494 88.602 234.353 87.4608 234.226 86.0661C234.226 84.9255 234.099 83.6575 233.973 82.5163L233.846 81.7559C233.846 81.6291 233.719 80.6146 233.719 81.2484C233.592 80.7414 233.592 80.2344 233.465 79.6002C233.085 77.3183 232.325 75.0364 231.437 72.8813C231.183 71.4866 232.197 70.2186 233.592 69.9652C234.733 69.8384 235.621 70.2192 236.255 70.9797Z" fill="#333333"/>
<path d="M205.955 78.0793C207.096 80.4879 207.984 83.0238 208.744 85.5592C208.997 86.8271 209.251 87.9678 209.505 89.2358C209.632 89.9967 209.758 90.7572 209.885 91.5176C210.012 92.9123 209.125 94.307 207.73 94.6872L208.998 93.6728L208.745 94.0535C208.238 94.9407 206.97 95.1948 206.082 94.6872C205.955 94.5605 205.828 94.5605 205.702 94.4338L205.448 94.1803L206.463 94.6872C205.321 94.4338 204.434 93.5466 204.18 92.2786C204.054 91.7717 204.054 91.2642 203.927 90.7572C204.054 91.3914 203.927 90.6304 203.927 90.5037C203.8 89.2363 203.547 88.0951 203.293 86.9539C202.786 84.672 202.025 82.3901 201.138 80.1083C200.758 78.7136 201.518 77.1921 203.04 76.8119C204.18 76.5579 205.321 77.0648 205.955 78.0793Z" fill="#333333"/>
<path d="M229.535 92.9123C231.057 95.4477 232.705 98.2371 235.494 99.5045C237.395 100.265 239.297 100.772 240.692 102.167C241.833 103.308 242.72 104.829 243.1 106.351C243.988 109.647 243.481 113.07 241.706 115.986C239.804 119.155 237.015 121.691 233.719 123.466C232.704 123.973 231.564 123.592 231.056 122.578C230.676 121.818 230.803 120.93 231.31 120.296C233.211 117.887 235.62 116.112 237.142 113.324C238.283 111.422 238.283 109.013 237.269 107.112C236.634 106.351 235.747 105.717 234.733 105.463C233.085 104.956 231.564 104.069 230.169 103.054C227.76 101.026 226.493 98.2371 225.225 95.4477C223.957 92.7856 227.887 90.2502 229.535 92.9123Z" fill="#333333"/>
<path d="M248.679 122.198C245.509 127.65 240.311 131.706 234.226 133.481C226.873 135.636 219.013 135.003 211.406 134.115L214.195 131.453C214.703 137.919 216.604 148.694 225.352 147.934C233.339 147.174 236.762 138.553 240.692 132.848C241.326 131.96 242.467 131.706 243.482 132.213C244.242 132.721 244.496 133.481 244.369 134.369C242.467 143.877 235.368 153.892 224.718 153.892C219.774 153.766 215.336 151.23 212.801 147.046C209.759 142.356 209.378 136.778 208.744 131.453C208.491 129.424 210.646 128.537 212.294 128.79C218.886 129.678 225.732 130.312 232.198 128.663C237.269 127.396 242.467 124.86 245.257 120.296C245.89 119.409 247.031 119.028 248.045 119.663C248.933 120.17 249.186 121.31 248.679 122.198Z" fill="#333333"/>
<path d="M148.97 96.4304C148.336 100.107 148.97 104.037 149.477 107.714C149.857 111.897 150.745 116.081 152.012 120.137C153.534 124.322 155.309 128.378 157.464 132.308C159.746 136.745 162.155 140.929 164.944 144.986C170.268 152.592 177.114 159.819 185.608 163.876C194.102 167.932 203.737 168.186 212.739 166.792C222.119 165.524 231.121 162.481 239.362 157.79C247.221 153.1 253.941 146.888 259.139 139.535C271.182 122.673 274.732 100.868 271.056 80.7102C267.759 62.8349 258.758 45.0863 243.672 34.3101C241.77 32.9154 239.869 31.7747 237.84 30.6335C234.543 28.8586 237.459 23.9141 240.756 25.689C258.251 35.324 269.914 53.3266 274.986 72.3432C280.691 93.7683 278.789 117.856 267.379 137.252C257.236 154.875 239.995 167.299 220.218 171.229C210.203 173.511 199.68 174.145 189.665 171.482C179.776 168.82 171.282 162.227 164.69 154.367C158.224 146.254 152.899 137.379 149.096 127.744C145.42 119.25 143.771 109.996 144.532 100.868C144.659 99.0931 144.786 97.3182 145.166 95.5433C145.674 93.0073 149.35 94.0218 148.97 96.4304Z" fill="#333333"/>
<path d="M201.776 203.89C190.206 195.563 179.361 187.038 179.253 186.953C177.784 185.797 177.531 183.67 178.686 182.202C179.842 180.733 181.969 180.479 183.437 181.635C183.541 181.716 193.899 189.858 205.11 197.951C223.913 211.525 229.468 213.701 230.905 214.035C232.105 213.1 236.419 208.42 247.742 185.288C254.428 171.626 260.23 158.299 260.288 158.166C261.033 156.452 263.025 155.665 264.74 156.412C266.454 157.157 267.239 159.15 266.494 160.863C266.432 161.007 260.16 175.415 253.103 189.721C239.229 217.85 234.967 220.513 231.789 220.831C231.561 220.854 231.311 220.879 231.009 220.879C228.682 220.879 223.312 219.389 201.776 203.89Z" fill="#333333"/>
<path d="M261.953 351.967C263.885 351.967 277.181 351.392 278.691 351.326C280.558 351.245 282.005 349.665 281.924 347.799C281.844 345.931 280.267 344.472 278.397 344.565C275.25 344.702 268.013 345.008 264.211 345.139C263.051 340.428 260.983 327.84 259.413 318.286C255.816 296.384 254.58 289.718 253.321 287.74C252.278 286.101 250.054 284.114 236.779 281.264C230.256 279.863 224.119 278.915 223.861 278.875C222.012 278.591 220.287 279.857 220.002 281.704C219.718 283.551 220.985 285.279 222.832 285.564C233.01 287.13 245.105 289.839 247.629 291.503C248.651 294.513 251.001 308.822 252.736 319.383C253.939 326.707 255.183 334.281 256.23 339.898C256.804 342.97 257.276 345.242 257.677 346.844C258.217 349.006 258.957 351.967 261.953 351.967Z" fill="#333333"/>
<path d="M288.439 322.933C290.131 322.933 291.593 321.666 291.796 319.944C292.013 318.088 290.686 316.407 288.83 316.189L279.894 315.137C275.882 306.136 258.274 266.687 255.375 261.18C252.456 255.635 243.152 257.613 235.372 259.955C228.246 262.101 221.64 264.955 221.362 265.076C219.648 265.82 218.861 267.812 219.604 269.526C220.348 271.24 222.34 272.027 224.054 271.284C224.11 271.26 229.727 268.834 235.935 266.865C245.841 263.721 248.905 264.366 249.514 264.577C253.039 271.461 274.279 319.161 274.496 319.648C274.981 320.739 276.005 321.493 277.191 321.633L288.039 322.909C288.174 322.925 288.307 322.933 288.439 322.933Z" fill="#333333"/>
<path d="M282.886 208.174C282.886 208.174 293.851 280.725 289.161 316.013C284.472 351.302 282.643 392.404 282.643 392.404L352.754 390.003L422.865 387.602C422.865 387.602 423.623 287.72 426.221 258.593C428.819 229.465 432.232 205.169 432.232 205.169L282.886 208.174Z" fill="#EBEBEB"/>
<rect width="47.9072" height="54.8424" transform="matrix(0.00537512 -0.999986 0.999997 0.00230729 288 203.906)" fill="url(#paint0_linear_1_563)"/>
<path d="M294.323 106.256C289.13 108.319 284.735 111.995 281.787 116.743C278.951 121.46 277.69 127.908 281.57 132.447C285.45 136.985 290.87 136.334 295.755 137.752C297.883 138.347 299.807 139.511 299.513 142.026C299.178 145.048 296.472 147.209 295.427 149.965C294.944 151.831 296.065 153.735 297.93 154.219C298.792 154.442 299.706 154.327 300.486 153.899C305.307 150.385 308.235 142.767 305.557 137.157C303.18 132.157 297.462 131.042 292.595 130.253C290.568 129.901 287.85 129.567 286.516 127.919C285.319 126.105 285.151 123.799 286.071 121.83C287.81 116.948 291.498 113.008 296.255 110.95C298.917 109.722 297.006 105.028 294.242 106.155L294.323 106.256Z" fill="#808080"/>
<path d="M291.991 94.5408C295.844 95.1024 303.246 96.0415 303.37 101.297C303.474 106.208 298.129 108.786 294.753 111.107C290.501 114.034 286.608 119.195 289.105 124.519C291.602 129.845 298.743 130.336 303.8 128.792C306.746 127.889 306.377 123.059 303.069 123.23C300.695 123.343 297.689 124.246 295.523 122.838C293.863 121.757 294.336 119.912 295.376 118.516C296.878 116.866 298.662 115.498 300.645 114.476C302.882 113.096 304.831 111.298 306.385 109.18C309.272 105.271 309.29 99.9415 306.432 96.012C303.14 91.5974 297.665 90.6856 292.534 90.0585C290.059 89.7657 289.436 94.106 291.93 94.4595L291.991 94.5408Z" fill="#808080"/>
<rect width="82.652" height="114.663" transform="matrix(0.0042666 -0.999991 0.999996 0.00290719 316 390.651)" fill="url(#paint1_linear_1_563)"/>
<path d="M336.712 53.2836C331.928 52.0288 318.856 162.991 323.97 162.806C325.552 162.811 377.364 177.197 408.303 172.376C439.242 167.554 446.73 167.215 446.73 167.215C446.73 167.215 459.761 108.42 456.308 80.6705L452.875 52.8406C414.563 44.7324 374.962 44.8832 336.712 53.2836Z" fill="#808080"/>
<path d="M326.268 138.039L451.691 141.139L446.73 167.174L408.282 172.335L417.937 190.467L406.853 203.678L359.143 205.722L375.962 194.743L371.194 171.758L327.049 164.095L326.268 138.039Z" fill="#EBEBEB"/>
<path d="M259.242 205.999C311.235 209.747 347.676 210.248 399.738 207.61C415.019 206.872 430.28 205.871 445.542 204.728C451.043 204.3 451.113 195.677 445.573 196.104C393.596 199.979 341.484 201.926 289.323 200.687C274.025 200.329 274.46 200.046 259.184 199.405C254.923 199.227 254.962 205.7 259.161 205.998L259.242 205.999Z" fill="#333333"/>
<path d="M267.126 206.067C267.905 221.024 268.38 236 268.997 250.956C269.614 265.912 270.559 233.71 271.034 248.706C271.945 278.292 272.083 307.916 270.519 337.494C269.606 354.413 268.147 371.289 265.998 388.102C266.012 390.524 267.963 392.49 270.385 392.52C272.794 392.465 274.742 390.541 274.824 388.133C282.357 329.054 281.367 316.293 277.782 256.972C276.746 239.985 275.243 223.059 274.005 206.091C273.695 201.667 266.838 201.562 267.065 206.067H267.126Z" fill="#333333"/>
<path d="M271.248 395.303C286.079 395.843 300.889 396.3 315.741 396.231C321.463 396.251 321.495 387.182 315.773 387.365C300.939 387.779 286.108 387.524 271.276 387.472C266.224 387.454 266.217 395.123 271.248 395.303Z" fill="#333333"/>
<path d="M416.874 204.342C410.485 242.255 407.199 233.404 406.714 271.848C406.513 282.885 406.474 293.937 406.598 305.001C406.679 310.683 415.525 310.735 415.444 305.033C414.99 266.723 416.622 275.783 419.881 237.629C420.812 226.818 421.885 216.006 423.039 205.176C423.417 201.687 417.495 200.834 416.955 204.302L416.874 204.342Z" fill="#333333"/>
<path d="M331.817 54.6864C325.463 85.1189 321.918 116.071 321.225 147.152C321.212 150.703 321.017 154.294 321.187 157.865C320.96 161.428 322.458 164.882 325.213 167.152C327.763 168.684 330.609 169.662 333.562 170.022C337.536 170.847 341.524 171.585 345.526 172.235C360.494 174.714 375.612 176.184 390.777 176.635C408.033 177.323 425.314 176.173 442.326 173.205C446.387 172.428 445.559 165.567 441.358 165.856C427.151 166.841 412.945 167.785 398.62 167.857C384.327 167.856 370.049 166.917 355.878 165.048C348.861 164.131 341.865 162.97 334.911 161.566C333.086 161.215 330.062 161.285 329.624 159.153C329.189 155.51 329.121 151.832 329.419 148.175C329.469 133.797 330.122 119.433 331.376 105.085C332.792 88.7566 335.043 72.5115 338.122 56.4132C338.907 52.3575 332.725 50.5908 331.879 54.6864H331.817Z" fill="#333333"/>
<path d="M339.238 56.3559C368.461 52.1276 398.075 51.2994 427.488 53.8878C430.937 54.2041 434.384 54.5816 437.812 54.9995C439.556 55.2076 441.3 55.4376 443.024 55.6873L445.478 56.0609L447.242 56.3516C448.094 56.6788 448.276 56.6799 447.749 56.3532C448.37 57.5676 448.777 58.8804 448.953 60.2324C449.394 61.8981 449.814 63.584 450.173 65.2687C450.932 68.6804 451.549 72.1319 452.003 75.5828C453.598 89.6395 453.487 103.837 451.672 117.867C449.892 133.585 446.611 149.115 443.392 164.504C442.174 170.202 450.911 172.647 452.149 166.95C458.441 137.368 465.021 106.957 461.233 76.5077C460.496 68.9797 458.95 61.5528 456.623 54.3554C455.7 51.0366 453.014 48.504 449.646 47.7769C445.814 46.9722 441.737 46.7144 437.843 46.2746C422.12 44.4784 406.294 43.7442 390.473 44.0785C372.664 44.3615 354.91 46.1315 337.396 49.3699C335.494 49.9238 334.374 51.8856 334.864 53.8047C335.427 55.7004 337.376 56.8225 339.298 56.3559H339.238Z" fill="#333333"/>
<path d="M405.935 176.121C406.599 180.132 407.958 183.996 409.953 187.538L410.618 188.798C410.738 189.009 410.845 189.226 410.941 189.449C410.779 189.104 410.8 189.104 410.941 189.449C411.102 189.794 411.141 190.16 411.241 190.525C411.502 191.52 411.345 189.877 411.24 190.809C411.238 191.317 411.094 191.904 411.239 191.093C411.238 191.479 411.054 191.843 410.951 192.228C410.663 193.364 411.4 191.479 410.849 192.553C410.665 192.897 410.481 193.262 410.257 193.606C410.032 193.95 409.38 194.699 410.052 193.93C409.767 194.253 409.502 194.557 409.218 194.84C408.932 195.123 408.688 195.284 408.444 195.527C408.199 195.769 408.24 195.709 408.607 195.406C408.454 195.54 408.29 195.661 408.118 195.769C407.476 196.212 406.796 196.597 406.085 196.919C406.796 196.576 405.578 197.079 405.435 197.14L404.054 197.541C403.14 197.781 402.206 197.98 401.252 198.159L399.851 198.378L399.08 198.375C396.877 198.561 394.715 199.073 392.663 199.895C391.192 200.753 390.695 202.642 391.554 204.113C391.819 204.565 392.193 204.943 392.644 205.211C397.162 207.184 402.208 207.595 406.985 206.377C411.606 205.395 415.667 202.66 418.314 198.747C421.081 194.697 421.479 189.478 419.356 185.055C418.45 183.165 417.34 181.436 416.352 179.566C416.124 179.065 416.084 178.983 416.231 179.322L415.97 178.652C415.769 178.103 415.588 177.575 415.408 177.027C415.072 175.939 414.799 174.834 414.588 173.717C413.916 171.342 411.466 169.943 409.079 170.573C406.738 171.288 405.354 173.697 405.915 176.08L405.935 176.121Z" fill="#333333"/>
<path d="M367.387 175.234C367.74 178.953 368.615 182.604 369.986 186.078L370.832 188.11C370.57 187.501 370.832 188.11 370.952 188.456C371.241 189.241 371.462 190.05 371.613 190.872C371.494 190.182 371.614 190.67 371.613 191.096C371.611 191.522 371.61 191.806 371.609 192.151C371.612 191.136 371.608 192.293 371.607 192.536C371.524 192.88 371.421 193.218 371.3 193.55C371.299 193.793 370.789 194.501 371.299 193.753C371.115 194.036 370.972 194.36 370.809 194.664L370.238 195.514C370.707 194.684 370.237 195.636 370.013 195.817C369.581 196.305 369.111 196.758 368.609 197.172C369.524 196.424 368.365 197.171 368.243 197.333C368.12 197.495 367.105 197.877 367.49 197.716L366.719 197.997C366.272 198.158 365.825 198.299 365.358 198.419C364.891 198.539 363.835 198.738 363.063 198.877C361.274 199.092 359.527 199.579 357.884 200.32C356.419 201.188 355.935 203.08 356.803 204.545C357.063 204.984 357.428 205.353 357.866 205.616C361.857 207.674 366.527 207.969 370.747 206.432C379.021 203.347 383.226 194.138 380.141 185.865C380.131 185.839 380.122 185.814 380.113 185.789C379.67 184.692 379.166 183.635 378.663 182.579C378.343 181.92 378.067 181.241 377.838 180.546C377.119 178.48 376.59 176.352 376.257 174.19C375.566 171.8 373.068 170.424 370.679 171.116C368.783 171.664 367.465 173.383 367.427 175.356L367.387 175.234Z" fill="#333333"/>
<path d="M331.307 142.034C351.083 143.808 370.924 144.75 390.766 145.246C400.518 145.483 410.277 145.606 420.043 145.614C425.075 145.631 430.121 145.581 435.18 145.464C437.534 145.472 439.888 145.379 442.242 145.225C444.596 145.071 447.558 145.244 449.493 143.12C450.675 141.893 450.682 139.953 449.509 138.717C447.487 136.681 444.95 136.895 442.272 136.825L435.211 136.8L420.074 136.909C410.308 136.874 400.548 136.773 390.797 136.603C370.954 136.148 351.134 135.104 331.336 133.877C326.081 133.555 326.155 141.529 331.307 141.994V142.034Z" fill="#333333"/>
<path d="M392.602 148.276C387.925 145.634 381.996 147.175 379.198 151.759C377.871 154.119 377.477 156.891 378.095 159.527C378.736 162.211 380.513 164.483 382.963 165.753C384.456 166.565 386.128 166.99 387.829 166.987C390.143 167.096 392.347 165.988 393.642 164.066C394.715 162.099 393.99 159.633 392.023 158.56C391.795 158.435 391.556 158.333 391.308 158.254C390.839 158.093 390.345 158.009 389.848 158.006C389.323 158.039 388.8 158.111 388.285 158.224L389.442 158.065C388.532 158.174 387.612 158.171 386.703 158.055L387.879 158.222C387.302 158.143 386.737 157.992 386.197 157.77L387.23 158.22C386.658 157.966 386.115 157.652 385.61 157.281L386.46 157.933C386.115 157.657 385.804 157.343 385.53 156.996L386.177 157.83C385.874 157.434 385.617 157.004 385.41 156.55L385.813 157.505C385.586 156.951 385.431 156.371 385.352 155.778L385.47 156.814C385.401 156.213 385.404 155.608 385.476 155.008L385.331 156.001C385.413 155.558 385.537 155.124 385.701 154.704L385.333 155.575C385.532 155.115 385.785 154.68 386.087 154.279L385.537 154.987C385.843 154.618 386.192 154.285 386.575 153.997L385.863 154.542C386.204 154.271 386.58 154.047 386.982 153.877L386.149 154.219C386.689 153.995 387.255 153.84 387.835 153.758L386.921 153.877C387.501 153.818 388.086 153.82 388.665 153.883L387.753 153.758C388.275 153.839 388.786 153.984 389.274 154.189L388.463 153.841L389.111 154.169C390.665 155.251 392.802 154.869 393.885 153.315C394.967 151.761 394.585 149.623 393.031 148.541C392.888 148.442 392.738 148.353 392.581 148.276H392.602Z" fill="#333333"/>
<path d="M301.814 156.681C303.254 165.641 303.078 174.787 301.292 183.685C300.371 188.121 299.087 192.473 297.453 196.698C297.248 197.225 297.043 197.752 296.818 198.279C296.593 198.805 296.45 199.048 297 198.543C295.784 198.784 294.539 198.841 293.306 198.712L286.406 199.013L283.179 199.184C282.049 199.391 280.895 199.449 279.75 199.355C280.275 199.925 280.296 199.844 279.751 199.111C279.206 198.378 279.267 198.095 279.046 197.587C278.603 196.631 278.201 195.555 277.819 194.661C276.245 190.505 275.052 186.216 274.252 181.845C273.446 177.55 273.074 173.184 273.141 168.815C273.157 164.351 274.004 160.032 274.405 155.611C274.806 151.188 268.336 150.74 267.125 154.591C264.642 162.434 265.035 171.729 266.123 179.767C266.658 183.902 267.567 187.98 268.84 191.951C269.989 195.962 271.61 199.823 273.668 203.452C276.231 207.519 280.739 206.744 284.919 206.555C289.458 206.614 293.996 206.345 298.496 205.751C302.882 204.874 303.914 199.927 305.063 196.238C306.317 192.18 307.261 188.032 307.886 183.83C309.324 174.306 309.228 164.613 307.602 155.118C306.925 151.241 301.117 152.884 301.732 156.701L301.814 156.681Z" fill="#333333"/>
<path d="M309.404 167.644C309.895 166.591 310.489 164.909 311.628 164.345C312.766 163.781 312.56 164.51 312.781 165.282C313.47 168.314 313.418 171.467 312.627 174.473C311.908 177.656 310.514 180.648 308.538 183.245C307.641 184.459 306.764 185.754 305.806 186.907C306.071 186.604 304.87 187.736 305.318 187.413C304.804 187.763 304.233 188.022 303.631 188.178C300.178 189.181 300.686 194.782 304.48 194.633C306.901 194.62 309.189 193.527 310.72 191.653C312.018 189.962 313.216 188.198 314.31 186.369C316.851 182.192 318.447 177.509 318.984 172.649C319.465 168.593 319.628 162.669 316.29 159.695C314.215 157.93 311.271 157.614 308.867 158.898C306.676 160.184 304.994 162.184 304.099 164.562C303.295 166.017 303.77 167.846 305.18 168.725C306.63 169.564 308.485 169.082 309.344 167.644H309.404Z" fill="#333333"/>
<path d="M303.251 151.817C297.691 152.203 292.11 152.467 286.53 152.488C283.819 152.524 281.107 152.379 278.415 152.054C275.643 151.426 272.791 151.217 269.956 151.436C268.415 151.874 267.522 153.479 267.96 155.02C268.09 155.479 268.331 155.897 268.661 156.24C271.297 158.218 274.486 159.322 277.781 159.397C280.588 159.724 283.414 159.87 286.24 159.833C292.228 159.613 298.191 158.956 304.082 157.866C307.452 157.351 306.722 151.646 303.292 151.898L303.251 151.817Z" fill="#333333"/>
<path d="M400.046 304.288C399.784 292.438 389.251 281.667 377.176 282.132C371.25 282.43 365.679 285.049 361.669 289.422C359.591 291.666 357.957 294.283 356.853 297.136C356.362 298.391 356.011 299.696 355.805 301.028C355.278 302.971 355.699 305.049 356.942 306.632C358.336 308.022 360.59 308.03 361.994 306.65C363.787 304.628 363.43 302.151 364.351 299.739C365.028 298.01 366.025 296.423 367.29 295.062C369.817 292.195 373.343 290.4 377.148 290.045C385.227 289.97 391.948 296.238 392.438 304.302C392.583 309.172 400.131 309.239 400.046 304.329V304.288Z" fill="#333333"/>
<path d="M311.371 312.032C331.646 313.854 352.015 314.4 372.358 313.667C392.774 312.803 413.113 310.631 433.251 307.165C435.623 306.503 437.023 304.058 436.395 301.678C435.705 299.316 433.275 297.92 430.888 298.513C391.471 305.37 351.404 307.734 311.455 305.56C307.276 305.321 307.376 311.632 311.432 312.032L311.371 312.032Z" fill="#333333"/>
<path d="M430.831 302.936C429.866 317.745 429.327 332.494 429.214 347.346C429.101 362.198 429.211 377.01 430.214 391.744C430.58 397.366 439.162 397.538 439.061 391.775C438.768 376.983 438.11 362.169 437.797 347.376C437.483 332.583 437.272 317.751 437.162 302.959C437.165 301.21 435.75 299.791 434.002 299.787C432.258 299.785 430.841 301.192 430.831 302.936Z" fill="#333333"/>
<path d="M307.826 310.558C310.228 325.581 311.96 340.785 312.86 355.965C313.307 363.488 313.504 371.029 313.45 378.591C313.437 382.364 313.424 386.139 313.207 389.912C313.2 391.941 313.031 393.848 312.923 395.815C312.683 397.79 312.941 399.792 313.673 401.641C314.224 403.465 316.148 404.497 317.972 403.947C318.771 403.706 319.456 403.183 319.9 402.475C320.951 400.774 321.519 398.819 321.543 396.819C321.55 394.79 321.759 392.904 321.827 390.936C321.983 387.001 322.057 383.065 322.072 379.128C322.099 371.242 321.87 363.368 321.384 355.508C320.393 339.776 318.107 324.152 314.548 308.796C313.529 304.349 307.13 306.295 307.825 310.64L307.826 310.558Z" fill="#333333"/>
<path d="M365.12 340.972C365.103 345.781 364.944 350.569 364.866 355.357C364.702 357.879 365.139 360.405 366.138 362.727C367.18 364.73 368.839 366.344 370.87 367.329C374.556 369.081 378.855 368.983 382.457 367.065C386.362 364.956 388.856 360.933 389.007 356.497C389.172 353.955 389.133 351.404 388.892 348.868C388.801 345.949 388.327 343.055 387.482 340.26C387.04 338.721 385.643 337.652 384.042 337.63C382.589 337.706 381.132 337.701 379.679 337.615C378.219 337.61 376.758 337.604 375.317 337.701C373.876 337.797 372.293 338.076 370.77 338.294C369.247 338.511 367.258 338.707 366.258 340.428C365.728 341.376 365.871 342.558 366.613 343.351C367.883 344.367 369.545 344.754 371.134 344.402L375.293 344.416C376.734 344.422 377.911 344.426 379.209 344.431C380.501 344.4 381.792 344.5 383.063 344.728L380.458 341.27C380.444 345.328 381.039 349.225 381.065 353.203C381.062 354.115 381.059 355.028 381.056 355.921C381.055 356.124 381.054 356.347 381.053 356.55C381.056 355.942 381.053 356.55 381.053 356.713C381.052 356.875 380.886 358.071 380.621 358.293C380.356 358.516 381.029 357.565 380.764 357.949C380.499 358.334 380.642 358.192 380.56 358.314C380.479 358.435 379.928 359.245 380.295 358.8C380.662 358.355 379.989 359.083 379.888 359.184L379.582 359.467C379.419 359.608 379.033 359.749 379.582 359.568C380.13 359.387 379.257 359.749 379.094 359.85C378.931 359.951 378.057 360.476 378.586 360.133C379.115 359.79 378.383 360.132 378.179 360.253L377.123 360.513C376.615 360.694 377.955 360.516 377.408 360.514L376.88 360.513C376.555 360.511 376.251 360.51 375.926 360.509L375.521 360.508C375.521 360.508 376.372 360.714 375.947 360.509C375.607 360.395 375.262 360.298 374.913 360.221C374.426 360.22 375.339 360.345 375.257 360.405C375.087 360.34 374.925 360.258 374.771 360.16C374.508 360.017 374.285 359.854 374.022 359.69C374.751 360.139 373.921 359.548 373.739 359.345L373.395 358.978C372.809 358.266 373.516 359.324 373.396 358.857C373.335 358.704 373.254 358.56 373.154 358.43C373.255 358.592 373.334 359.059 373.155 358.308C373.054 357.922 372.974 357.556 372.895 357.171C372.815 356.785 372.897 356.42 372.895 357.171L372.897 356.583C372.898 356.014 372.9 355.466 372.761 354.898C372.29 350.331 371.839 345.743 371.49 341.157C371.442 339.491 370.103 338.15 368.437 338.102C366.762 338.118 365.401 339.46 365.362 341.135L365.12 340.972Z" fill="#333333"/>
<path d="M319.576 350.47C328.073 352.952 336.793 354.593 345.611 355.37C349.83 355.75 354.09 355.928 358.331 355.902C360.36 355.909 362.592 355.917 364.703 355.681C365.994 355.697 367.273 355.418 368.439 354.862C369.009 354.528 369.486 354.055 369.824 353.488C370.233 352.373 370.315 352.272 370.089 353.164C371.065 352.191 371.068 350.611 370.095 349.635C369.946 349.484 369.778 349.354 369.595 349.246C370.019 349.897 369.898 349.774 369.231 348.859C368.772 348.379 368.191 348.033 367.551 347.859C366.625 347.664 365.675 347.599 364.731 347.666C362.601 347.659 360.49 347.916 358.359 347.949C354.301 348.029 350.209 347.92 346.085 347.621C337.797 346.975 329.593 345.519 321.589 343.274C319.602 342.706 317.532 343.858 316.964 345.844C316.397 347.832 317.548 349.902 319.535 350.47H319.576Z" fill="#333333"/>
<path d="M387.794 355.499C396.56 355.601 405.302 354.554 413.796 352.384C417.927 351.36 421.996 350.101 425.984 348.613C429.925 347.145 434.496 345.396 436.944 341.773C437.644 340.521 437.196 338.939 435.944 338.239C435.577 338.034 435.166 337.921 434.746 337.91C430.912 337.632 426.949 339.628 423.454 340.934C419.584 342.378 415.637 343.611 411.632 344.626C403.803 346.527 395.82 347.735 387.779 348.234C385.773 348.233 384.145 349.858 384.144 351.863C384.142 353.862 385.755 355.486 387.753 355.499H387.794Z" fill="#333333"/>
<path d="M316.584 404.695C318.469 405.168 320.191 406.067 322.097 406.52C324.002 406.973 326.152 407.346 328.281 407.658C332.337 408.267 336.393 408.762 340.45 409.141C348.547 409.811 356.674 410.043 364.796 409.835C380.851 409.77 396.879 408.469 412.735 405.946C416.961 405.243 421.144 404.303 425.264 403.13C429.326 401.987 434.666 400.87 437.094 397.287C438.076 395.616 437.519 393.465 435.848 392.482C435.607 392.34 435.35 392.227 435.082 392.147C432.616 391.878 430.123 392.29 427.875 393.339C425.539 394.101 423.203 394.783 420.828 395.343C416.369 396.46 411.855 397.345 407.305 397.994C397.784 399.401 388.103 399.955 378.484 400.571C368.458 401.124 358.394 401.332 348.352 400.89C343.523 400.671 338.675 400.329 333.868 399.805C331.292 399.532 328.737 399.198 326.181 398.844C323.626 398.49 320.988 398.583 318.514 398.148C314.317 397.423 312.408 403.544 316.686 404.654L316.584 404.695Z" fill="#333333"/>
<defs>
<linearGradient id="paint0_linear_1_563" x1="-275.137" y1="411.921" x2="-275.683" y2="411.921" gradientUnits="userSpaceOnUse">
<stop stop-color="#2D5481"/>
<stop offset="0.899934" stop-color="#3E66A8"/>
<stop offset="1" stop-color="#4169AD"/>
</linearGradient>
<linearGradient id="paint1_linear_1_563" x1="-258.968" y1="128.196" x2="-259.395" y2="128.196" gradientUnits="userSpaceOnUse">
<stop stop-color="#2D5481"/>
<stop offset="0.899934" stop-color="#3E66A8"/>
<stop offset="1" stop-color="#4169AD"/>
</linearGradient>
</defs>
</svg>
