<svg width="156" height="50" viewBox="0 0 156 50" fill="none" xmlns="http://www.w3.org/2000/svg">
<path d="M17.057 0.570503V11.3455H5.813V0.570503H0V27.7025H5.813V16.3455H17.057V27.7025H22.87V0.570503H17.057Z" fill="#2A5270"/>
<path d="M59.9703 22.6595V0.570503H54.1523V22.7405C54.1523 25.9585 55.9013 27.7025 59.1143 27.7025H72.3333V22.6595H59.9703Z" fill="#2A5270"/>
<path d="M72.3335 0.570202V5.5702H80.3535V27.7022H86.1665V5.5702H94.1915V0.570202H72.3335Z" fill="#2A5270"/>
<path d="M105.556 21.0715C105.125 22.7405 103.694 23.5905 101.525 23.5905C98.8123 23.5905 97.0683 21.8845 96.6803 19.1335H110.707C110.75 18.7085 110.788 18.1275 110.788 17.3895C110.788 12.9335 108.037 7.85751 101.137 7.85751C94.5063 7.85751 91.4863 12.9335 91.4863 17.8955C91.4863 22.8155 94.8993 28.0095 101.525 28.0095C106.331 28.0095 110.05 25.2965 110.825 21.0715H105.556ZM101.137 11.8085C103.731 11.8085 105.244 13.5525 105.4 15.7265H96.7563C97.2243 13.0085 98.6933 11.8085 101.137 11.8085Z" fill="#2A5270"/>
<path d="M128.117 20.4145C127.729 22.1585 126.142 23.3585 124.166 23.3585C121.222 23.3585 119.478 21.1085 119.478 17.9335C119.478 14.7575 121.179 12.4705 124.091 12.4705C126.066 12.4705 127.729 13.7455 128.042 15.4895H133.467C133.117 10.9575 129.048 7.85751 123.935 7.85751C117.885 7.85751 113.859 12.2335 113.859 17.9335C113.859 23.6275 117.885 28.0085 123.935 28.0085C129.011 28.0085 133.042 24.7525 133.623 20.4145H128.117Z" fill="#2A5270"/>
<path d="M148.037 7.8575C145.324 7.8575 143.193 8.9825 142.068 10.8765V0.569504H136.68V27.7025H142.068V17.0025C142.068 14.4835 143.736 12.6635 146.099 12.6635C148.349 12.6635 149.899 14.3705 149.899 16.7325V27.7025H155.287V15.5325C155.287 11.0335 152.418 7.8575 148.037 7.8575Z" fill="#2A5270"/>
<path d="M26.5173 13.8495C26.5173 4.7195 32.4183 -0.000495911 39.1463 -0.000495911C45.4793 -0.000495911 50.1213 3.8685 50.8043 9.7095H45.1553C44.7963 6.8855 42.3133 4.9895 39.1463 4.9895C35.0813 4.9895 31.9503 8.0465 31.9503 13.8495C31.9503 19.6525 35.0813 22.6705 39.1463 22.6705C42.3853 22.6705 44.8673 20.7745 45.2993 17.9895H50.6963C50.2283 23.7925 45.5873 27.6995 39.1463 27.6995C32.3103 27.6995 26.5173 22.9795 26.5173 13.8495Z" fill="#2A5270"/>
<path d="M6.58717 38.2791C6.52943 37.7915 6.29525 37.413 5.88465 37.1435C5.47404 36.874 4.97041 36.7393 4.37374 36.7393C3.93748 36.7393 3.55574 36.8099 3.22854 36.951C2.90454 37.0922 2.65112 37.2863 2.46828 37.5333C2.28864 37.7803 2.19881 38.061 2.19881 38.3753C2.19881 38.6384 2.26137 38.8645 2.38647 39.0538C2.51479 39.2398 2.67839 39.3954 2.87728 39.5205C3.07616 39.6424 3.28468 39.7435 3.50281 39.8237C3.72094 39.9007 3.92144 39.9632 4.10428 40.0113L5.10514 40.2808C5.36176 40.3482 5.64726 40.4412 5.96163 40.5599C6.27921 40.6786 6.58236 40.8406 6.87106 41.0459C7.16298 41.248 7.40357 41.5078 7.59283 41.8254C7.7821 42.143 7.87673 42.5327 7.87673 42.9946C7.87673 43.5271 7.73719 44.0083 7.4581 44.4382C7.18223 44.868 6.77803 45.2097 6.24553 45.4631C5.71623 45.7165 5.07306 45.8432 4.316 45.8432C3.61027 45.8432 2.99918 45.7293 2.48271 45.5016C1.96945 45.2738 1.56526 44.9562 1.27014 44.5489C0.978224 44.1415 0.813019 43.6683 0.774525 43.1294H2.00634C2.03842 43.5015 2.16353 43.8094 2.38166 44.0532C2.60301 44.2938 2.88209 44.4735 3.21891 44.5922C3.55895 44.7076 3.92464 44.7654 4.316 44.7654C4.77152 44.7654 5.18052 44.6916 5.54301 44.544C5.9055 44.3933 6.1926 44.1848 6.40432 43.9185C6.61604 43.649 6.7219 43.3347 6.7219 42.9754C6.7219 42.6482 6.63047 42.3819 6.44763 42.1766C6.26478 41.9713 6.02419 41.8045 5.72586 41.6762C5.42753 41.5479 5.10514 41.4356 4.75869 41.3394L3.54612 40.9929C2.77623 40.7716 2.16674 40.4556 1.71764 40.045C1.26854 39.6344 1.04399 39.0971 1.04399 38.4331C1.04399 37.8813 1.19315 37.4001 1.49148 36.9895C1.79302 36.5757 2.19721 36.2549 2.70405 36.0272C3.2141 35.7962 3.7835 35.6807 4.41224 35.6807C5.04739 35.6807 5.61198 35.7946 6.10599 36.0224C6.6 36.2469 6.99136 36.5549 7.28006 36.9462C7.57198 37.3376 7.72596 37.7819 7.742 38.2791H6.58717ZM14.329 42.6482V38.2791H15.4646V45.67H14.329V44.4189H14.252C14.0788 44.7943 13.8093 45.1134 13.4437 45.3765C13.078 45.6363 12.616 45.7662 12.0579 45.7662C11.5959 45.7662 11.1853 45.6652 10.826 45.4631C10.4668 45.2578 10.1845 44.9498 9.97916 44.5392C9.77386 44.1254 9.67121 43.6041 9.67121 42.9754V38.2791H10.8068V42.8984C10.8068 43.4373 10.9576 43.8672 11.2591 44.188C11.5638 44.5088 11.952 44.6691 12.4236 44.6691C12.7058 44.6691 12.9929 44.597 13.2849 44.4526C13.58 44.3083 13.827 44.0869 14.0259 43.7886C14.228 43.4903 14.329 43.1101 14.329 42.6482ZM17.5445 48.4416V38.2791H18.6416V39.4532H18.7763C18.8597 39.3249 18.9752 39.1613 19.1228 38.9624C19.2735 38.7603 19.4885 38.5806 19.7675 38.4234C20.0498 38.263 20.4316 38.1829 20.9128 38.1829C21.5351 38.1829 22.0836 38.3384 22.5584 38.6496C23.0331 38.9608 23.4037 39.4018 23.6699 39.9728C23.9362 40.5438 24.0693 41.2175 24.0693 41.9938C24.0693 42.7765 23.9362 43.455 23.6699 44.0292C23.4037 44.6002 23.0348 45.0429 22.5632 45.3572C22.0916 45.6684 21.5479 45.824 20.932 45.824C20.4572 45.824 20.0771 45.7454 19.7916 45.5882C19.5061 45.4278 19.2864 45.2466 19.1324 45.0445C18.9784 44.8392 18.8597 44.6691 18.7763 44.5344H18.6801V48.4416H17.5445ZM18.6608 41.9745C18.6608 42.5327 18.7426 43.0251 18.9062 43.4518C19.0698 43.8752 19.3088 44.2072 19.6232 44.4478C19.9376 44.6852 20.3225 44.8039 20.778 44.8039C21.2528 44.8039 21.649 44.6788 21.9665 44.4286C22.2873 44.1751 22.5279 43.8351 22.6883 43.4085C22.8519 42.9786 22.9337 42.5006 22.9337 41.9745C22.9337 41.4549 22.8535 40.9865 22.6931 40.5695C22.5359 40.1493 22.2969 39.8173 21.9762 39.5735C21.6586 39.3265 21.2592 39.203 20.778 39.203C20.3161 39.203 19.9279 39.32 19.6136 39.5542C19.2992 39.7852 19.0618 40.1092 18.9014 40.5262C18.741 40.94 18.6608 41.4228 18.6608 41.9745ZM28.9003 45.824C28.1882 45.824 27.5739 45.6668 27.0574 45.3524C26.5441 45.0348 26.148 44.5922 25.8689 44.0244C25.593 43.4534 25.4551 42.7893 25.4551 42.0323C25.4551 41.2752 25.593 40.608 25.8689 40.0306C26.148 39.45 26.5361 38.9976 27.0333 38.6737C27.5338 38.3465 28.1176 38.1829 28.7848 38.1829C29.1698 38.1829 29.5499 38.247 29.9252 38.3753C30.3006 38.5036 30.6422 38.7121 30.9501 39.0009C31.2581 39.2864 31.5035 39.6649 31.6863 40.1364C31.8692 40.608 31.9606 41.1886 31.9606 41.8783V42.3595H26.2635V41.3779H30.8058C30.8058 40.9609 30.7224 40.5887 30.5556 40.2615C30.392 39.9343 30.1578 39.6761 29.8531 39.4868C29.5515 39.2976 29.1954 39.203 28.7848 39.203C28.3325 39.203 27.9412 39.3152 27.6108 39.5398C27.2836 39.7611 27.0317 40.0498 26.8553 40.4059C26.6789 40.762 26.5907 41.1437 26.5907 41.5511V42.2055C26.5907 42.7637 26.6869 43.2368 26.8794 43.625C27.075 44.0099 27.3461 44.3034 27.6926 44.5055C28.039 44.7044 28.4416 44.8039 28.9003 44.8039C29.1987 44.8039 29.4681 44.7622 29.7087 44.6788C29.9525 44.5922 30.1626 44.4638 30.339 44.2938C30.5155 44.1206 30.6518 43.9057 30.748 43.649L31.8451 43.957C31.7297 44.3291 31.5356 44.6563 31.2629 44.9386C30.9902 45.2177 30.6534 45.4358 30.2524 45.593C29.8515 45.747 29.4007 45.824 28.9003 45.824ZM33.6881 45.67V38.2791H34.7851V39.3954H34.8621C34.9969 39.0297 35.2407 38.733 35.5935 38.5052C35.9464 38.2775 36.3442 38.1636 36.7868 38.1636C36.8703 38.1636 36.9745 38.1652 37.0996 38.1684C37.2247 38.1716 37.3194 38.1764 37.3835 38.1829V39.3377C37.345 39.3281 37.2568 39.3136 37.1189 39.2944C36.9841 39.2719 36.8414 39.2607 36.6906 39.2607C36.3313 39.2607 36.0105 39.3361 35.7283 39.4868C35.4492 39.6344 35.2278 39.8397 35.0642 40.1028C34.9038 40.3626 34.8236 40.6593 34.8236 40.9929V45.67H33.6881ZM41.4883 45.824C40.7954 45.824 40.1987 45.6604 39.6983 45.3332C39.1979 45.006 38.8129 44.5553 38.5434 43.9811C38.274 43.4069 38.1393 42.7508 38.1393 42.013C38.1393 41.2624 38.2772 40.6 38.5531 40.0258C38.8322 39.4484 39.2203 38.9976 39.7175 38.6737C40.218 38.3465 40.8018 38.1829 41.469 38.1829C41.9887 38.1829 42.457 38.2791 42.8741 38.4716C43.2911 38.664 43.6327 38.9335 43.899 39.2799C44.1652 39.6264 44.3304 40.0306 44.3946 40.4925H43.259C43.1724 40.1557 42.9799 39.8574 42.6816 39.5975C42.3865 39.3345 41.9887 39.203 41.4883 39.203C41.0456 39.203 40.6574 39.3184 40.3238 39.5494C39.9934 39.7772 39.7352 40.0995 39.5491 40.5166C39.3663 40.9304 39.2748 41.4164 39.2748 41.9745C39.2748 42.5455 39.3647 43.0428 39.5443 43.4662C39.7272 43.8896 39.9838 44.2184 40.3142 44.4526C40.6478 44.6868 41.0392 44.8039 41.4883 44.8039C41.7834 44.8039 42.0512 44.7526 42.2918 44.6499C42.5324 44.5472 42.7361 44.3997 42.9029 44.2072C43.0697 44.0147 43.1884 43.7838 43.259 43.5143H44.3946C44.3304 43.9506 44.1716 44.3435 43.9182 44.6932C43.668 45.0397 43.336 45.3155 42.9222 45.5208C42.5116 45.7229 42.0336 45.824 41.4883 45.824ZM47.1902 41.2239V45.67H46.0547V35.8155H47.1902V39.4339H47.2865C47.4597 39.0522 47.7195 38.749 48.066 38.5245C48.4156 38.2967 48.8808 38.1829 49.4614 38.1829C49.965 38.1829 50.4061 38.2839 50.7846 38.486C51.1632 38.6849 51.4567 38.9912 51.6652 39.405C51.8769 39.8157 51.9828 40.3385 51.9828 40.9737V45.67H50.8472V41.0507C50.8472 40.4636 50.6948 40.0097 50.3901 39.6889C50.0885 39.3649 49.6699 39.203 49.1342 39.203C48.7621 39.203 48.4285 39.2815 48.1333 39.4387C47.8414 39.5959 47.6105 39.8253 47.4404 40.1268C47.2736 40.4284 47.1902 40.7941 47.1902 41.2239ZM56.2352 45.8432C55.7668 45.8432 55.3418 45.755 54.9601 45.5786C54.5783 45.3989 54.2752 45.1407 54.0506 44.8039C53.8261 44.4638 53.7138 44.0532 53.7138 43.5721C53.7138 43.1486 53.7972 42.8054 53.964 42.5423C54.1308 42.2761 54.3538 42.0676 54.6329 41.9168C54.912 41.766 55.2199 41.6538 55.5567 41.58C55.8968 41.503 56.2384 41.442 56.5816 41.3971C57.0307 41.3394 57.3948 41.2961 57.6739 41.2672C57.9562 41.2351 58.1615 41.1822 58.2898 41.1084C58.4214 41.0346 58.4871 40.9063 58.4871 40.7235V40.685C58.4871 40.2102 58.3572 39.8413 58.0974 39.5783C57.8407 39.3152 57.451 39.1837 56.9281 39.1837C56.386 39.1837 55.9609 39.3024 55.653 39.5398C55.345 39.7772 55.1285 40.0306 55.0034 40.3L53.9255 39.9151C54.118 39.466 54.3746 39.1163 54.6954 38.8661C55.0194 38.6127 55.3723 38.4363 55.754 38.3368C56.139 38.2342 56.5175 38.1829 56.8896 38.1829C57.127 38.1829 57.3996 38.2117 57.7076 38.2695C58.0188 38.324 58.3187 38.4379 58.6074 38.6111C58.8993 38.7843 59.1415 39.0458 59.334 39.3954C59.5265 39.7451 59.6227 40.2134 59.6227 40.8005V45.67H58.4871V44.6691H58.4294C58.3524 44.8295 58.2241 45.0012 58.0444 45.184C57.8648 45.3669 57.6258 45.5224 57.3275 45.6508C57.0291 45.7791 56.665 45.8432 56.2352 45.8432ZM56.4084 44.8231C56.8575 44.8231 57.236 44.7349 57.544 44.5585C57.8552 44.382 58.0893 44.1543 58.2465 43.8752C58.4069 43.5961 58.4871 43.3026 58.4871 42.9946V41.9553C58.439 42.013 58.3331 42.066 58.1695 42.1141C58.0091 42.159 57.8231 42.1991 57.6114 42.2344C57.4029 42.2665 57.1992 42.2953 57.0003 42.321C56.8046 42.3434 56.6458 42.3627 56.5239 42.3787C56.2288 42.4172 55.9529 42.4798 55.6963 42.5664C55.4429 42.6498 55.2376 42.7765 55.0804 42.9465C54.9264 43.1133 54.8494 43.3411 54.8494 43.6298C54.8494 44.0244 54.9954 44.3227 55.2873 44.5248C55.5824 44.7237 55.9561 44.8231 56.4084 44.8231ZM61.6954 45.67V38.2791H62.7925V39.3954H62.8695C63.0042 39.0297 63.248 38.733 63.6008 38.5052C63.9537 38.2775 64.3515 38.1636 64.7942 38.1636C64.8776 38.1636 64.9818 38.1652 65.1069 38.1684C65.232 38.1716 65.3267 38.1764 65.3908 38.1829V39.3377C65.3523 39.3281 65.2641 39.3136 65.1262 39.2944C64.9915 39.2719 64.8487 39.2607 64.6979 39.2607C64.3387 39.2607 64.0179 39.3361 63.7356 39.4868C63.4565 39.6344 63.2351 39.8397 63.0715 40.1028C62.9112 40.3626 62.831 40.6593 62.831 40.9929V45.67H61.6954ZM69.4628 48.5956C68.9142 48.5956 68.4427 48.525 68.0481 48.3838C67.6536 48.2459 67.3247 48.0631 67.0617 47.8353C66.8019 47.6108 66.595 47.3702 66.441 47.1135L67.3456 46.4784C67.4483 46.6131 67.5782 46.7671 67.7354 46.9403C67.8925 47.1167 68.1075 47.2691 68.3801 47.3974C68.656 47.529 69.0169 47.5947 69.4628 47.5947C70.0595 47.5947 70.5519 47.4504 70.94 47.1617C71.3282 46.8729 71.5222 46.4206 71.5222 45.8047V44.3034H71.426C71.3426 44.4382 71.2239 44.605 71.0699 44.8039C70.9192 44.9996 70.701 45.1744 70.4155 45.3284C70.1332 45.4791 69.7515 45.5545 69.2703 45.5545C68.6737 45.5545 68.1379 45.4134 67.6632 45.1311C67.1916 44.8488 66.8179 44.4382 66.542 43.8993C66.2694 43.3603 66.133 42.7059 66.133 41.936C66.133 41.179 66.2662 40.5198 66.5324 39.9584C66.7987 39.3938 67.1692 38.9576 67.6439 38.6496C68.1187 38.3384 68.6672 38.1829 69.2896 38.1829C69.7707 38.1829 70.1525 38.263 70.4348 38.4234C70.7203 38.5806 70.9384 38.7603 71.0892 38.9624C71.2432 39.1613 71.3618 39.3249 71.4452 39.4532H71.5607V38.2791H72.6578V45.8817C72.6578 46.5169 72.5135 47.0333 72.2248 47.4311C71.9393 47.8321 71.5543 48.1256 71.0699 48.3117C70.5887 48.5009 70.053 48.5956 69.4628 48.5956ZM69.4243 44.5344C69.8798 44.5344 70.2648 44.4302 70.5791 44.2216C70.8935 44.0131 71.1325 43.7132 71.2961 43.3218C71.4597 42.9305 71.5415 42.4621 71.5415 41.9168C71.5415 41.3843 71.4613 40.9143 71.3009 40.5069C71.1405 40.0995 70.9031 39.7804 70.5887 39.5494C70.2744 39.3184 69.8862 39.203 69.4243 39.203C68.9431 39.203 68.5421 39.3249 68.2213 39.5686C67.9038 39.8124 67.6648 40.1396 67.5044 40.5503C67.3472 40.9609 67.2686 41.4164 67.2686 41.9168C67.2686 42.4301 67.3488 42.884 67.5092 43.2785C67.6728 43.6699 67.9134 43.9779 68.231 44.2024C68.5518 44.4237 68.9495 44.5344 69.4243 44.5344ZM74.7365 45.67V38.2791H75.8721V45.67H74.7365ZM75.3139 37.0473C75.0926 37.0473 74.9017 36.9719 74.7413 36.8211C74.5841 36.6703 74.5055 36.4891 74.5055 36.2774C74.5055 36.0657 74.5841 35.8844 74.7413 35.7337C74.9017 35.5829 75.0926 35.5075 75.3139 35.5075C75.5353 35.5075 75.7245 35.5829 75.8817 35.7337C76.0421 35.8844 76.1223 36.0657 76.1223 36.2774C76.1223 36.4891 76.0421 36.6703 75.8817 36.8211C75.7245 36.9719 75.5353 37.0473 75.3139 37.0473ZM79.0876 41.2239V45.67H77.952V38.2791H79.0491V39.4339H79.1453C79.3185 39.0586 79.5816 38.7571 79.9344 38.5293C80.2873 38.2983 80.7428 38.1829 81.301 38.1829C81.8014 38.1829 82.2393 38.2855 82.6146 38.4908C82.9899 38.6929 83.2818 39.0009 83.4904 39.4147C83.6989 39.8253 83.8031 40.345 83.8031 40.9737V45.67H82.6675V41.0507C82.6675 40.4701 82.5168 40.0177 82.2152 39.6938C81.9137 39.3666 81.4999 39.203 80.9738 39.203C80.6113 39.203 80.2873 39.2815 80.0018 39.4387C79.7195 39.5959 79.4966 39.8253 79.333 40.1268C79.1694 40.4284 79.0876 40.7941 79.0876 41.2239ZM88.8615 48.5956C88.313 48.5956 87.8414 48.525 87.4468 48.3838C87.0523 48.2459 86.7235 48.0631 86.4604 47.8353C86.2006 47.6108 85.9937 47.3702 85.8397 47.1135L86.7443 46.4784C86.847 46.6131 86.9769 46.7671 87.1341 46.9403C87.2913 47.1167 87.5062 47.2691 87.7789 47.3974C88.0547 47.529 88.4156 47.5947 88.8615 47.5947C89.4582 47.5947 89.9506 47.4504 90.3387 47.1617C90.7269 46.8729 90.921 46.4206 90.921 45.8047V44.3034H90.8247C90.7413 44.4382 90.6226 44.605 90.4687 44.8039C90.3179 44.9996 90.0997 45.1744 89.8143 45.3284C89.532 45.4791 89.1502 45.5545 88.669 45.5545C88.0724 45.5545 87.5367 45.4134 87.0619 45.1311C86.5904 44.8488 86.2166 44.4382 85.9408 43.8993C85.6681 43.3603 85.5318 42.7059 85.5318 41.936C85.5318 41.179 85.6649 40.5198 85.9311 39.9584C86.1974 39.3938 86.5679 38.9576 87.0427 38.6496C87.5174 38.3384 88.066 38.1829 88.6883 38.1829C89.1695 38.1829 89.5512 38.263 89.8335 38.4234C90.119 38.5806 90.3371 38.7603 90.4879 38.9624C90.6419 39.1613 90.7606 39.3249 90.844 39.4532H90.9595V38.2791H92.0565V45.8817C92.0565 46.5169 91.9122 47.0333 91.6235 47.4311C91.338 47.8321 90.953 48.1256 90.4687 48.3117C89.9875 48.5009 89.4518 48.5956 88.8615 48.5956ZM88.823 44.5344C89.2785 44.5344 89.6635 44.4302 89.9779 44.2216C90.2922 44.0131 90.5312 43.7132 90.6948 43.3218C90.8584 42.9305 90.9402 42.4621 90.9402 41.9168C90.9402 41.3843 90.86 40.9143 90.6996 40.5069C90.5392 40.0995 90.3018 39.7804 89.9875 39.5494C89.6731 39.3184 89.285 39.203 88.823 39.203C88.3418 39.203 87.9409 39.3249 87.6201 39.5686C87.3025 39.8124 87.0635 40.1396 86.9031 40.5503C86.7459 40.9609 86.6673 41.4164 86.6673 41.9168C86.6673 42.4301 86.7475 42.884 86.9079 43.2785C87.0715 43.6699 87.3121 43.9779 87.6297 44.2024C87.9505 44.4237 88.3483 44.5344 88.823 44.5344ZM98.1002 45.67V35.8155H101.43C102.203 35.8155 102.835 35.955 103.326 36.2341C103.82 36.51 104.185 36.8837 104.423 37.3552C104.66 37.8268 104.779 38.3529 104.779 38.9335C104.779 39.5141 104.66 40.0418 104.423 40.5166C104.189 40.9913 103.826 41.3699 103.335 41.6522C102.845 41.9312 102.216 42.0708 101.449 42.0708H99.0625V41.0122H101.411C101.94 41.0122 102.365 40.9208 102.686 40.7379C103.007 40.5551 103.239 40.3081 103.383 39.9969C103.531 39.6825 103.605 39.3281 103.605 38.9335C103.605 38.5389 103.531 38.1861 103.383 37.8749C103.239 37.5637 103.005 37.3199 102.681 37.1435C102.357 36.9639 101.927 36.874 101.391 36.874H99.2935V45.67H98.1002ZM106.493 45.67V38.2791H107.59V39.3954H107.667C107.802 39.0297 108.046 38.733 108.399 38.5052C108.751 38.2775 109.149 38.1636 109.592 38.1636C109.675 38.1636 109.78 38.1652 109.905 38.1684C110.03 38.1716 110.124 38.1764 110.189 38.1829V39.3377C110.15 39.3281 110.062 39.3136 109.924 39.2944C109.789 39.2719 109.646 39.2607 109.496 39.2607C109.136 39.2607 108.816 39.3361 108.533 39.4868C108.254 39.6344 108.033 39.8397 107.869 40.1028C107.709 40.3626 107.629 40.6593 107.629 40.9929V45.67H106.493ZM114.307 45.824C113.64 45.824 113.054 45.6652 112.551 45.3476C112.05 45.03 111.659 44.5857 111.376 44.0147C111.097 43.4437 110.958 42.7765 110.958 42.013C110.958 41.2432 111.097 40.5711 111.376 39.9969C111.659 39.4227 112.05 38.9768 112.551 38.6592C113.054 38.3416 113.64 38.1829 114.307 38.1829C114.974 38.1829 115.558 38.3416 116.058 38.6592C116.562 38.9768 116.953 39.4227 117.232 39.9969C117.515 40.5711 117.656 41.2432 117.656 42.013C117.656 42.7765 117.515 43.4437 117.232 44.0147C116.953 44.5857 116.562 45.03 116.058 45.3476C115.558 45.6652 114.974 45.824 114.307 45.824ZM114.307 44.8039C114.814 44.8039 115.231 44.674 115.558 44.4141C115.885 44.1543 116.127 43.8126 116.284 43.3892C116.442 42.9658 116.52 42.507 116.52 42.013C116.52 41.519 116.442 41.0587 116.284 40.6321C116.127 40.2054 115.885 39.8606 115.558 39.5975C115.231 39.3345 114.814 39.203 114.307 39.203C113.8 39.203 113.383 39.3345 113.056 39.5975C112.729 39.8606 112.486 40.2054 112.329 40.6321C112.172 41.0587 112.093 41.519 112.093 42.013C112.093 42.507 112.172 42.9658 112.329 43.3892C112.486 43.8126 112.729 44.1543 113.056 44.4141C113.383 44.674 113.8 44.8039 114.307 44.8039ZM122.373 48.5956C121.824 48.5956 121.352 48.525 120.958 48.3838C120.563 48.2459 120.235 48.0631 119.971 47.8353C119.712 47.6108 119.505 47.3702 119.351 47.1135L120.255 46.4784C120.358 46.6131 120.488 46.7671 120.645 46.9403C120.802 47.1167 121.017 47.2691 121.29 47.3974C121.566 47.529 121.927 47.5947 122.373 47.5947C122.969 47.5947 123.462 47.4504 123.85 47.1617C124.238 46.8729 124.432 46.4206 124.432 45.8047V44.3034H124.336C124.252 44.4382 124.134 44.605 123.98 44.8039C123.829 44.9996 123.611 45.1744 123.325 45.3284C123.043 45.4791 122.661 45.5545 122.18 45.5545C121.583 45.5545 121.048 45.4134 120.573 45.1311C120.101 44.8488 119.728 44.4382 119.452 43.8993C119.179 43.3603 119.043 42.7059 119.043 41.936C119.043 41.179 119.176 40.5198 119.442 39.9584C119.708 39.3938 120.079 38.9576 120.554 38.6496C121.028 38.3384 121.577 38.1829 122.199 38.1829C122.681 38.1829 123.062 38.263 123.345 38.4234C123.63 38.5806 123.848 38.7603 123.999 38.9624C124.153 39.1613 124.272 39.3249 124.355 39.4532H124.471V38.2791H125.568V45.8817C125.568 46.5169 125.423 47.0333 125.135 47.4311C124.849 47.8321 124.464 48.1256 123.98 48.3117C123.499 48.5009 122.963 48.5956 122.373 48.5956ZM122.334 44.5344C122.79 44.5344 123.175 44.4302 123.489 44.2216C123.803 44.0131 124.042 43.7132 124.206 43.3218C124.369 42.9305 124.451 42.4621 124.451 41.9168C124.451 41.3843 124.371 40.9143 124.211 40.5069C124.05 40.0995 123.813 39.7804 123.499 39.5494C123.184 39.3184 122.796 39.203 122.334 39.203C121.853 39.203 121.452 39.3249 121.131 39.5686C120.814 39.8124 120.575 40.1396 120.414 40.5503C120.257 40.9609 120.178 41.4164 120.178 41.9168C120.178 42.4301 120.259 42.884 120.419 43.2785C120.583 43.6699 120.823 43.9779 121.141 44.2024C121.462 44.4237 121.859 44.5344 122.334 44.5344ZM127.646 45.67V38.2791H128.743V39.3954H128.82C128.955 39.0297 129.199 38.733 129.552 38.5052C129.905 38.2775 130.302 38.1636 130.745 38.1636C130.828 38.1636 130.933 38.1652 131.058 38.1684C131.183 38.1716 131.278 38.1764 131.342 38.1829V39.3377C131.303 39.3281 131.215 39.3136 131.077 39.2944C130.942 39.2719 130.8 39.2607 130.649 39.2607C130.29 39.2607 129.969 39.3361 129.686 39.4868C129.407 39.6344 129.186 39.8397 129.022 40.1028C128.862 40.3626 128.782 40.6593 128.782 40.9929V45.67H127.646ZM135.556 45.824C134.844 45.824 134.23 45.6668 133.713 45.3524C133.2 45.0348 132.804 44.5922 132.525 44.0244C132.249 43.4534 132.111 42.7893 132.111 42.0323C132.111 41.2752 132.249 40.608 132.525 40.0306C132.804 39.45 133.192 38.9976 133.689 38.6737C134.19 38.3465 134.774 38.1829 135.441 38.1829C135.826 38.1829 136.206 38.247 136.581 38.3753C136.957 38.5036 137.298 38.7121 137.606 39.0009C137.914 39.2864 138.159 39.6649 138.342 40.1364C138.525 40.608 138.617 41.1886 138.617 41.8783V42.3595H132.919V41.3779H137.462C137.462 40.9609 137.378 40.5887 137.212 40.2615C137.048 39.9343 136.814 39.6761 136.509 39.4868C136.207 39.2976 135.851 39.203 135.441 39.203C134.988 39.203 134.597 39.3152 134.267 39.5398C133.94 39.7611 133.688 40.0498 133.511 40.4059C133.335 40.762 133.247 41.1437 133.247 41.5511V42.2055C133.247 42.7637 133.343 43.2368 133.535 43.625C133.731 44.0099 134.002 44.3034 134.349 44.5055C134.695 44.7044 135.098 44.8039 135.556 44.8039C135.855 44.8039 136.124 44.7622 136.365 44.6788C136.608 44.5922 136.819 44.4638 136.995 44.2938C137.171 44.1206 137.308 43.9057 137.404 43.649L138.501 43.957C138.386 44.3291 138.192 44.6563 137.919 44.9386C137.646 45.2177 137.309 45.4358 136.908 45.593C136.507 45.747 136.057 45.824 135.556 45.824ZM145.579 39.9343L144.559 40.2231C144.495 40.053 144.4 39.8878 144.275 39.7274C144.153 39.5638 143.987 39.4291 143.775 39.3232C143.563 39.2174 143.292 39.1645 142.962 39.1645C142.509 39.1645 142.132 39.2687 141.831 39.4772C141.533 39.6825 141.383 39.944 141.383 40.2615C141.383 40.5438 141.486 40.7668 141.691 40.9304C141.897 41.094 142.217 41.2303 142.654 41.3394L143.751 41.6088C144.412 41.7692 144.904 42.0146 145.228 42.3451C145.552 42.6723 145.714 43.0941 145.714 43.6106C145.714 44.034 145.592 44.4125 145.348 44.7461C145.108 45.0798 144.771 45.3428 144.338 45.5353C143.905 45.7277 143.401 45.824 142.827 45.824C142.073 45.824 141.449 45.6604 140.955 45.3332C140.461 45.006 140.148 44.528 140.017 43.8993L141.095 43.6298C141.197 44.0276 141.391 44.3259 141.677 44.5248C141.966 44.7237 142.343 44.8231 142.808 44.8231C143.337 44.8231 143.757 44.7108 144.068 44.4863C144.383 44.2585 144.54 43.9859 144.54 43.6683C144.54 43.4117 144.45 43.1967 144.27 43.0235C144.091 42.8471 143.815 42.7156 143.443 42.6289L142.211 42.3402C141.534 42.1798 141.037 41.9312 140.719 41.5944C140.405 41.2544 140.248 40.8293 140.248 40.3193C140.248 39.9023 140.365 39.5334 140.599 39.2126C140.836 38.8918 141.159 38.64 141.566 38.4571C141.977 38.2743 142.442 38.1829 142.962 38.1829C143.693 38.1829 144.267 38.3432 144.684 38.664C145.104 38.9848 145.403 39.4083 145.579 39.9343ZM152.659 39.9343L151.638 40.2231C151.574 40.053 151.48 39.8878 151.355 39.7274C151.233 39.5638 151.066 39.4291 150.854 39.3232C150.642 39.2174 150.371 39.1645 150.041 39.1645C149.589 39.1645 149.212 39.2687 148.91 39.4772C148.612 39.6825 148.463 39.944 148.463 40.2615C148.463 40.5438 148.565 40.7668 148.771 40.9304C148.976 41.094 149.297 41.2303 149.733 41.3394L150.83 41.6088C151.491 41.7692 151.983 42.0146 152.307 42.3451C152.631 42.6723 152.793 43.0941 152.793 43.6106C152.793 44.034 152.671 44.4125 152.428 44.7461C152.187 45.0798 151.85 45.3428 151.417 45.5353C150.984 45.7277 150.48 45.824 149.906 45.824C149.152 45.824 148.528 45.6604 148.034 45.3332C147.54 45.006 147.228 44.528 147.096 43.8993L148.174 43.6298C148.277 44.0276 148.471 44.3259 148.756 44.5248C149.045 44.7237 149.422 44.8231 149.887 44.8231C150.416 44.8231 150.837 44.7108 151.148 44.4863C151.462 44.2585 151.619 43.9859 151.619 43.6683C151.619 43.4117 151.529 43.1967 151.35 43.0235C151.17 42.8471 150.894 42.7156 150.522 42.6289L149.29 42.3402C148.613 42.1798 148.116 41.9312 147.799 41.5944C147.484 41.2544 147.327 40.8293 147.327 40.3193C147.327 39.9023 147.444 39.5334 147.678 39.2126C147.916 38.8918 148.238 38.64 148.646 38.4571C149.056 38.2743 149.521 38.1829 150.041 38.1829C150.772 38.1829 151.347 38.3432 151.764 38.664C152.184 38.9848 152.482 39.4083 152.659 39.9343Z" fill="#2A5270"/>
<path d="M148.233 39.7097V39.3047H151.061V39.7097H149.875V43.075H149.419V39.7097H148.233ZM151.765 39.3047H152.31L153.592 42.4343H153.636L154.917 39.3047H155.462V43.075H155.035V40.2104H154.998L153.82 43.075H153.407L152.229 40.2104H152.192V43.075H151.765V39.3047Z" fill="#2A5270"/>
</svg>
