<svg width="117" height="84" viewBox="0 0 117 84" fill="none" xmlns="http://www.w3.org/2000/svg">
<path d="M52.4327 47.8611C52.8053 49.4084 52.7927 51.3806 52.3926 53.7804C51.9929 56.1797 51.2855 58.7135 50.2731 61.379C49.2595 64.0464 47.9535 66.726 46.3535 69.4182C44.7539 72.1115 42.9543 74.5373 40.9542 76.6969C38.9545 78.8565 36.7811 80.5902 34.4352 81.8962C32.0881 83.2037 29.636 83.8561 27.0763 83.8561C25.0491 83.8561 23.4369 83.5237 22.237 82.8563C21.0371 82.1901 20.1434 81.3102 19.5574 80.2164C18.9699 79.1242 18.6637 77.8441 18.6374 76.377C18.6103 74.911 18.7576 73.3248 19.0775 71.6179C18.064 73.2175 17.0103 74.7511 15.9177 76.217C14.8243 77.6846 13.7046 78.9642 12.5581 80.0564C11.4109 81.1502 10.2649 82.016 9.11883 82.6563C7.97161 83.2961 6.83932 83.6435 5.71922 83.6962C4.65335 83.75 3.73329 83.5358 2.95983 83.0563C2.18715 82.5761 1.55989 81.8962 1.08002 81.0162C0.60014 80.1366 0.280223 79.0707 0.120264 77.817C-0.040088 76.5645 -0.040088 75.2172 0.120264 73.7775C0.333673 72.0176 0.747523 70.152 1.35985 68.1782C1.97374 66.206 2.67961 64.2327 3.4794 62.2589C4.27959 60.2868 5.09314 58.3798 5.91926 56.5397C6.74539 54.7 7.4654 53.034 8.07891 51.5405C8.69162 50.0482 9.11883 48.7808 9.35897 47.7412C9.59871 46.7013 9.53111 46.0214 9.15892 45.7014C8.78516 45.3815 8.95887 45.0089 9.67889 44.5817C10.3985 44.1553 11.2911 43.9152 12.3585 43.8617C13.4244 43.8091 14.5307 44.0492 15.6779 44.5817C16.824 45.1155 17.6375 46.1813 18.1178 47.7809C18.5973 49.3286 18.5175 51.208 17.8777 53.4203C17.2378 55.6338 16.3441 57.9397 15.1981 60.3394C14.0504 62.7388 12.8246 65.126 11.5186 67.4983C10.211 69.8717 9.11883 71.9779 8.23886 73.8173C7.35889 75.6574 6.85151 77.1245 6.71906 78.2167C6.58543 79.3105 7.13173 79.7766 8.35873 79.6166C8.99896 79.564 9.785 79.0707 10.7188 78.1369C11.6511 77.2043 12.6509 76.0048 13.7183 74.5373C14.7842 73.0713 15.878 71.4053 16.9977 69.538C18.1178 67.672 19.1974 65.7525 20.2374 63.7788C21.2773 61.8066 22.2492 59.8871 23.1571 58.0198C24.063 56.1538 24.8365 54.474 25.4767 52.9806C26.2226 51.1145 26.7564 49.5409 27.0763 48.2612C27.3962 46.9811 27.3424 46.1287 26.9163 45.7014C26.5426 45.3815 26.7163 45.0089 27.4363 44.5817C28.1559 44.1553 29.0485 43.9152 30.1159 43.8617C31.1821 43.8091 32.2881 44.0492 33.4353 44.5817C34.5814 45.1155 35.3953 46.1813 35.8752 47.7809C36.3551 49.3286 36.2749 51.2206 35.6351 53.4604C34.9952 55.6999 34.1153 58.0332 32.9955 60.4593C31.8758 62.8866 30.6881 65.2986 29.436 67.6983C28.1822 70.0981 27.1961 72.2577 26.4765 74.1773C25.7565 76.0972 25.4625 77.6571 25.5966 78.8565C25.729 80.0564 26.6227 80.6566 28.2762 80.6566C29.8758 80.6566 31.4081 79.8442 32.8757 78.2167C34.3416 76.5908 35.7015 74.5373 36.9548 72.0577C38.2074 69.5781 39.3145 66.886 40.2747 63.9788C41.2344 61.0732 42.0342 58.3272 42.674 55.7399C43.3139 53.1543 43.7403 50.9282 43.9541 49.061C44.1663 47.1949 44.1663 46.1011 43.9541 45.7816C43.7403 45.4613 43.9804 45.0891 44.6737 44.6615C45.3662 44.2355 46.2199 43.9953 47.2335 43.9415C48.2459 43.8892 49.2595 44.1294 50.2731 44.6615C51.2855 45.1952 52.0055 46.2611 52.4327 47.8611Z" fill="#272626"/>
<path d="M75.8683 63.179C75.0682 64.7527 74.121 66.4324 73.0288 68.2183C71.935 70.0054 70.7489 71.805 69.4692 73.6176C68.1895 75.431 66.8694 77.0844 65.5099 78.5767C64.1501 80.0702 62.7765 81.2964 61.3903 82.2562C60.0029 83.2163 58.6706 83.6962 57.3909 83.6962C56.3247 83.75 55.405 83.5358 54.6312 83.0563C53.8589 82.5761 53.2316 81.8962 52.7513 81.0162C52.2715 80.1366 51.9516 79.0707 51.7916 77.817C51.6316 76.5645 51.6316 75.2172 51.7916 73.7775C52.0054 72.0176 52.4192 70.152 53.0316 68.1782C53.6451 66.206 54.3513 64.2327 55.1511 62.2589C55.9513 60.2868 56.7637 58.3798 57.591 56.5397C58.4171 54.7 59.1367 53.0344 59.7506 51.5405C60.3629 50.0482 60.7905 48.7949 61.0303 47.7809C61.2704 46.7685 61.2028 46.0752 60.8302 45.7014C60.4569 45.3815 60.6306 45.0089 61.3506 44.5817C62.0702 44.1553 62.9628 43.9156 64.0302 43.8617C65.0961 43.8091 66.202 44.0492 67.3497 44.5817C68.4957 45.1155 69.3093 46.1813 69.7891 47.7809C70.269 49.3286 70.1892 51.208 69.5494 53.4203C68.9095 55.6338 68.0158 57.9397 66.8694 60.3394C65.7222 62.7388 64.4963 65.1127 63.1899 67.4586C61.8828 69.8053 60.7905 71.8977 59.9106 73.7375C59.0306 75.5772 58.5232 77.0443 58.3908 78.1369C58.2572 79.2303 58.8031 79.7239 60.0304 79.6166C60.563 79.564 61.2429 79.1368 62.0702 78.337C62.8964 77.5372 63.8164 76.5106 64.83 75.2573C65.842 74.0051 66.882 72.6052 67.9494 71.0579C69.0157 69.5117 70.0289 67.966 70.989 66.4187C71.9488 64.8725 72.8012 63.4066 73.5488 62.0192C74.2947 60.633 74.8284 59.487 75.1483 58.5795C75.3083 58.1535 75.5748 57.8874 75.9481 57.7797C76.3207 57.6736 76.6681 57.6736 76.9881 57.7797C77.308 57.8874 77.5607 58.0996 77.7482 58.4195C77.9344 58.7399 77.9207 59.0869 77.7081 59.4595C77.2805 60.367 76.6681 61.6065 75.8683 63.179Z" fill="#272626"/>
<path d="M105.944 53.7804C105.836 55.5938 105.437 57.4999 104.744 59.4996C104.051 61.4993 103.265 63.4589 102.385 65.3788C101.505 67.2983 100.625 69.1258 99.745 70.8579C98.8651 72.5914 98.1852 74.0975 97.7053 75.3776C97.2254 76.6572 97.0254 77.6846 97.1052 78.4569C97.1853 79.2307 97.758 79.6167 98.825 79.6167C99.3049 79.6167 99.971 79.2307 100.825 78.4569C101.677 77.6846 102.611 76.671 103.625 75.4173C104.637 74.1651 105.69 72.7514 106.784 71.1778C107.876 69.6057 108.904 68.0458 109.864 66.4985C110.824 64.9523 111.676 63.473 112.423 62.0593C113.169 60.6468 113.703 59.487 114.023 58.5795C114.183 58.1535 114.449 57.8874 114.823 57.7797C115.196 57.6736 115.542 57.6736 115.863 57.7797C116.183 57.8874 116.435 58.0997 116.623 58.4196C116.809 58.7399 116.795 59.0869 116.582 59.4595C116.155 60.367 115.542 61.6066 114.743 63.179C113.943 64.7527 112.996 66.4325 111.903 68.2183C110.809 70.0058 109.624 71.8054 108.344 73.6176C107.064 75.431 105.744 77.0845 104.384 78.5768C103.024 80.0702 101.651 81.2964 100.265 82.2562C98.8776 83.2163 97.5453 83.6962 96.2657 83.6962C95.1982 83.7501 94.2919 83.4962 93.546 82.9365C92.7984 82.3765 92.1861 81.6164 91.7062 80.6566C91.2264 79.6969 90.8927 78.6168 90.7064 77.4169C90.5189 76.2171 90.5064 75.005 90.6663 73.7776C90.9324 71.5916 91.4386 69.432 92.1861 67.2983C92.9321 65.1665 93.746 63.1264 94.6256 61.1794C95.5056 59.2335 96.3718 57.4473 97.2254 55.8202C98.0775 54.1942 98.7177 52.7805 99.1449 51.5806C99.5709 50.3808 99.7175 49.4611 99.5851 48.8213C99.4511 48.1814 98.825 47.8886 97.7053 47.9413C97.1177 47.9951 96.2916 48.4613 95.2253 49.3412C94.1583 50.2208 92.9985 51.3409 91.7459 52.7008C90.4926 54.0602 89.2263 55.5541 87.9466 57.18C86.6665 58.8071 85.5193 60.367 84.5069 61.8593C83.4937 63.9391 82.44 66.006 81.3474 68.0584C80.254 70.1119 79.2805 72.0452 78.4281 73.8578C77.5744 75.6712 76.948 77.2708 76.5483 78.6569C76.1482 80.0443 76.1344 81.1105 76.5082 81.8565C76.7204 82.2841 76.5483 82.7239 75.9882 83.1763C75.4282 83.6302 74.7085 83.8688 73.8286 83.8963C72.9486 83.9226 72.0427 83.6436 71.1089 83.0564C70.1766 82.4704 69.4692 81.3766 68.9893 79.7766C68.5629 78.497 68.5892 76.8172 69.0695 74.7374C69.5494 72.6579 70.243 70.4318 71.149 68.0584C72.0565 65.6861 73.0685 63.2588 74.1886 60.7796C75.3083 58.2997 76.3207 56.0202 77.2282 53.9403C78.1341 51.8609 78.8003 50.0746 79.2279 48.5811C79.6539 47.0888 79.6539 46.1291 79.2279 45.7015C78.8541 45.3816 79.0278 45.0094 79.7478 44.5818C80.4675 44.1553 81.3738 43.9156 82.4675 43.8618C83.5597 43.8095 84.6673 44.0492 85.787 44.5818C86.9067 45.1155 87.7069 46.1813 88.1868 47.7813C88.399 48.475 88.4791 49.2347 88.4265 50.0608C88.373 50.8881 88.239 51.7544 88.0264 52.6607C89.0388 51.4883 90.0662 50.3682 91.1061 49.3011C92.146 48.2349 93.1981 47.3015 94.2656 46.5013C95.3318 45.7015 96.3718 45.0616 97.3853 44.5818C98.3978 44.1019 99.3851 43.8618 100.345 43.8618C102.425 43.8095 103.97 44.7154 104.984 46.5815C105.996 48.4487 106.316 50.8485 105.944 53.7804Z" fill="#272626"/>
<path d="M81.1195 10.3611C82.7808 10.0235 84.6041 12.094 85.192 14.9862C85.78 17.878 84.9098 20.4963 83.2481 20.8339C81.5869 21.1715 79.7636 19.1011 79.1757 16.2089C78.5881 13.317 79.4583 10.6987 81.1195 10.3611Z" fill="white"/>
<path d="M83.8849 13.8001C84.5506 14.9045 85.038 16.1389 85.0706 17.4217C85.1193 18.705 84.6646 20.0365 83.6899 20.8811C84.2421 21.076 84.8918 20.865 85.3304 20.459C85.7525 20.0365 86.0449 19.5169 86.2072 18.9321C87.1166 16.0089 85.9635 12.8258 83.3814 11.1692C83.1055 10.9904 82.8131 10.8281 82.5207 10.698C82.2609 10.5844 81.8549 10.3733 81.5786 10.5195C81.254 10.698 81.4489 10.9094 81.6435 11.0717C81.9198 11.3154 82.1795 11.5752 82.4232 11.835C82.9754 12.452 83.4628 13.1017 83.8849 13.8001Z" fill="#0C58A6"/>
<path d="M103.13 20.3616C102.578 24.3566 102.951 28.4334 104.251 32.2661C104.43 32.7696 104.559 33.4519 104.121 33.7439C103.958 33.8414 103.796 33.8901 103.618 33.9066C102.838 34.0202 102.042 34.0689 101.263 34.1176C99.5085 34.2151 97.7384 34.2151 95.9678 34.1338C96.0818 34.1338 96.2764 30.2036 96.2929 29.8463C96.3416 28.4008 96.3251 26.9718 96.2441 25.5262C96.2115 24.8117 96.1467 24.0807 96.0818 23.3662C96.0492 23.009 96.0166 22.6517 95.9678 22.2944C95.903 21.9533 95.8704 21.6283 95.8542 21.2875C95.8542 21.0926 95.903 20.8324 96.1306 20.8002C96.3577 20.7514 96.7476 20.9464 96.9913 20.9951C97.6244 21.1413 98.258 21.2223 98.9076 21.2223C100.19 21.2549 101.474 21.0273 102.692 20.5726C102.838 20.4917 102.984 20.4264 103.13 20.3616Z" fill="#5E2B85"/>
<path d="M91.7292 0.239014C91.7292 0.239014 92.7848 2.38293 95.773 1.13235C98.7776 -0.118241 101.214 0.287748 103.325 3.03259C105.42 5.77705 105.729 7.98582 105.729 7.98582C105.729 7.98582 107.174 7.33616 107.629 9.52881C108.084 11.7211 106.427 11.7698 106.427 11.7698C106.427 11.7698 105.972 19.517 101.977 20.9134C97.9821 22.3102 92.6874 20.1667 91.4368 17.0158C90.1862 13.865 89.3907 9.91869 91.0795 7.07637C92.7848 4.23445 95.1724 2.77242 95.7734 2.67534C96.3739 2.57787 94.3278 2.72407 92.9798 2.52914C91.6317 2.3342 91.7292 0.239014 91.7292 0.239014Z" fill="white"/>
<path d="M99.2487 22.6839C99.1673 22.9763 99.1351 23.2687 99.1512 23.5607C99.1838 24.0158 99.3788 24.4379 99.5411 24.8601C99.8983 25.786 100.093 26.7442 100.142 27.735C100.174 28.2219 100.126 28.7093 100.012 29.164C99.7848 29.895 99.2974 30.4956 98.794 31.0804C98.7126 31.194 98.599 31.2914 98.4689 31.324C98.2744 31.3567 98.0956 31.194 97.9494 31.0477C97.2997 30.3497 96.6013 29.57 96.6013 28.6118C96.6178 28.2384 96.6827 27.8808 96.7963 27.5235L97.9333 23.5933C97.5108 23.6747 97.2671 23.1225 97.2022 22.6839C97.1374 22.2131 97.1213 21.7583 97.1213 21.2871C97.1213 21.3197 98.5016 21.4333 98.6317 21.4498L99.3949 21.5308C99.4758 21.5308 99.6059 21.5147 99.6386 21.6121C99.6547 21.7096 99.5572 21.8393 99.5246 21.9045C99.411 22.1804 99.3136 22.4241 99.2487 22.6839Z" fill="#B2B2B1"/>
<path d="M91.8105 9.25288C91.6316 10.0161 91.6969 10.812 92.0054 11.543C92.0541 11.6727 92.119 11.8028 92.1838 11.9164C92.2165 11.9651 92.2491 12.03 92.2813 12.0787L92.33 12.16C92.3788 12.241 92.3788 12.2088 92.3466 12.0465L92.5089 11.835L92.4928 11.8515L92.7687 11.8189C92.7364 11.8028 92.7525 11.8189 92.8013 11.835L92.9149 11.949L92.8661 12.3224C92.9797 12.2088 92.9797 12.0138 92.8661 11.9003V11.8837C92.7687 11.7863 92.6063 11.7702 92.4928 11.835C92.2652 11.949 92.2813 12.2736 92.4601 12.4198C92.6225 12.5499 92.8661 12.5173 92.9962 12.355C93.0284 12.3224 93.045 12.2736 93.0611 12.2249C93.1259 12.0138 92.9797 11.835 92.8822 11.6727C92.8013 11.543 92.736 11.4129 92.6873 11.2828C92.444 10.6984 92.3627 10.0649 92.4762 9.43131C92.525 9.25288 92.4114 9.07405 92.2491 9.02532C92.0541 8.97658 91.8592 9.07405 91.8105 9.25288Z" fill="#272626"/>
<path d="M94.1168 12.7771C93.4023 12.7932 92.9476 13.4429 92.8662 14.1087C92.7687 14.8236 93.1099 15.5707 93.8083 15.8466C93.9706 15.9114 94.1494 15.9279 94.3279 15.9279C94.5715 15.9279 94.7991 15.7978 94.9288 15.5868C95.0101 15.4406 94.9614 15.2618 94.8152 15.1969C94.7665 15.1643 94.7177 15.1643 94.669 15.1643C94.5715 15.1643 94.4902 15.1808 94.4092 15.1969L94.3117 15.213H94.2469H94.1494C94.2304 15.2295 94.1168 15.213 94.1007 15.1969C94.0842 15.1808 94.0354 15.1808 93.9867 15.1643C94.0519 15.1969 93.9545 15.1482 93.9545 15.1482C93.9219 15.1321 93.8896 15.116 93.857 15.0833C93.8405 15.0672 93.8405 15.0672 93.857 15.0833L93.8083 15.0346C93.7757 15.002 93.7595 14.9859 93.7434 14.9532C93.7757 15.002 93.7108 14.9045 93.7108 14.9045C93.6295 14.7909 93.5807 14.6447 93.5646 14.515C93.5485 14.4337 93.5646 14.5473 93.5646 14.4663V14.3201V14.2061C93.5646 14.1739 93.5807 14.1087 93.5646 14.1739C93.5807 14.0925 93.5972 14.0277 93.6133 13.9628C93.6295 13.9302 93.6295 13.8976 93.646 13.8654C93.6133 13.9302 93.6782 13.8166 93.6782 13.8001C93.7108 13.7514 93.7434 13.6865 93.7757 13.6378C93.7922 13.6052 93.8083 13.6052 93.7757 13.6378C93.7922 13.6217 93.8083 13.6052 93.8083 13.5891L93.8731 13.5242C93.8896 13.5077 93.9057 13.4916 93.8731 13.5242L93.9057 13.4916C93.938 13.4755 93.9706 13.4594 94.0032 13.4429C93.9384 13.4755 94.0354 13.4429 94.0354 13.4429L94.1007 13.4268C94.0681 13.4268 94.0681 13.4268 94.1007 13.4268C94.2791 13.4268 94.4253 13.2806 94.4253 13.1017C94.4253 12.9233 94.2791 12.7771 94.1168 12.7771Z" fill="#272626"/>
<path d="M101.782 15.1321C101.587 16.2203 100.97 17.1785 100.061 17.8117C99.6382 18.1202 99.1347 18.3151 98.6151 18.4126C98.3715 18.4452 98.1117 18.4452 97.868 18.3804C97.6243 18.299 97.3972 18.1689 97.2022 18.0066C97.056 17.9257 96.8772 17.9744 96.7963 18.1202C96.7636 18.1854 96.7475 18.2503 96.7636 18.3316C96.9586 18.8673 97.5269 19.0623 98.0303 19.1271C98.5503 19.1597 99.0537 19.0788 99.5246 18.8838C100.483 18.494 101.295 17.7794 101.798 16.8861C102.074 16.3665 102.237 15.7978 102.286 15.2134C102.334 14.9045 101.815 14.8236 101.782 15.1321Z" fill="#272626"/>
<path d="M105.518 8.70066C105.567 8.29467 105.956 7.92091 106.395 8.09974C106.817 8.27856 107.158 8.84687 107.305 9.26897C107.499 9.75631 107.499 10.2924 107.321 10.7793C107.239 10.9908 107.11 11.1692 106.915 11.2993C106.785 11.3803 106.59 11.4455 106.46 11.3154C106.249 11.0879 105.842 11.3803 106.021 11.6566C106.362 12.16 106.996 12.0625 107.402 11.7053C107.808 11.348 108.019 10.7145 108.035 10.1623C108.035 9.52875 107.857 8.91171 107.499 8.37603C107.207 7.9048 106.736 7.43396 106.135 7.43396C105.469 7.43396 104.966 7.98615 104.884 8.61931C104.852 8.96045 105.469 9.0418 105.518 8.70066Z" fill="#272626"/>
<path d="M104.17 33.4027C102.806 33.6951 101.425 33.89 100.029 33.9549C99.3302 33.9875 98.6153 33.9875 97.9173 33.9549C97.5762 33.9388 97.235 33.9222 96.9104 33.89C96.7316 33.8735 96.5527 33.8574 96.3743 33.8413C96.1955 33.8248 95.9844 33.7926 95.8221 33.971C95.7247 34.0849 95.692 34.2473 95.7734 34.377C95.8869 34.5884 96.0819 34.6045 96.293 34.6371C96.4718 34.6533 96.6502 34.6694 96.829 34.6859C97.1863 34.7181 97.5596 34.7346 97.9173 34.7507C98.6318 34.783 99.3463 34.783 100.061 34.7507C101.506 34.6859 102.952 34.4909 104.365 34.1498C104.852 34.0523 104.657 33.3052 104.17 33.4027Z" fill="#272626"/>
<path d="M95.481 22.0668C94.7012 23.431 93.4023 24.4057 92.0864 25.1851C90.771 25.9809 89.3581 26.598 87.8804 27.0366C87.5718 27.134 87.2633 27.215 86.9383 27.2803C86.8082 27.3125 86.6785 27.329 86.5484 27.3612C86.4022 27.3938 86.2725 27.4426 86.1589 27.54C86.0127 27.6375 85.964 27.8159 86.0615 27.9621C86.0937 28.0274 86.1589 28.0761 86.2399 28.0922C86.3861 28.1571 86.5323 28.1736 86.6946 28.1571C86.8247 28.141 86.9548 28.1083 87.0845 28.0922C87.3608 28.0274 87.6528 27.9621 87.9291 27.8812C88.6436 27.6697 89.342 27.4264 90.0239 27.134C91.5995 26.4683 93.126 25.6398 94.4092 24.5028C95.0911 23.9184 95.6598 23.2039 96.098 22.4241C96.2768 22.0342 95.7085 21.6935 95.481 22.0668Z" fill="#272626"/>
<path d="M103.325 22.3266C104.462 23.1712 105.42 24.243 106.33 25.2986C106.541 25.5423 106.752 25.8021 106.963 26.0619C107.012 26.1106 107.044 26.1593 107.077 26.2081C107.093 26.2246 107.126 26.3216 107.142 26.2733C107.142 26.2246 107.109 26.322 107.109 26.322C106.996 26.4844 106.898 26.6467 106.785 26.8255C106.346 27.4748 105.907 28.1083 105.42 28.7254C105.16 29.0665 104.884 29.4076 104.608 29.7488C104.462 29.9272 104.316 30.106 104.17 30.2683C104.072 30.3819 103.991 30.5281 103.861 30.5446H104.056L104.072 30.5608C103.764 30.3497 103.423 30.7557 103.585 31.0481C103.699 31.2426 103.926 31.3401 104.137 31.2753C104.332 31.2104 104.494 31.0968 104.608 30.9341C104.9 30.5769 105.193 30.2357 105.485 29.8624C106.054 29.1479 106.59 28.4007 107.093 27.6375C107.223 27.4425 107.337 27.2637 107.45 27.0688C107.58 26.8904 107.694 26.6954 107.792 26.4844C107.954 26.0296 107.58 25.7211 107.32 25.4122C106.785 24.8117 106.249 24.1942 105.68 23.6259C105.047 22.9602 104.348 22.3427 103.618 21.7905C103.471 21.7096 103.293 21.7583 103.212 21.9045C103.146 22.0668 103.195 22.2453 103.325 22.3266Z" fill="#272626"/>
<path d="M103.812 30.5281C103.455 30.4307 103.081 30.3819 102.708 30.3658C102.513 30.3493 102.302 30.3819 102.123 30.4468C101.977 30.5281 101.847 30.6582 101.783 30.8205C101.636 31.1452 101.571 31.5024 101.571 31.8601C101.555 32.2334 101.636 32.6233 101.799 32.9645C101.912 33.1429 102.14 33.1916 102.318 33.0942C102.464 33.0132 102.529 32.8344 102.481 32.6882C102.448 32.5581 102.383 32.4284 102.367 32.2983C102.351 32.2661 102.351 32.2334 102.351 32.1847C102.351 32.1847 102.334 32.0711 102.334 32.136C102.334 32.0711 102.318 32.0059 102.318 31.9575V31.73V31.6325C102.318 31.5999 102.334 31.5512 102.318 31.5999C102.334 31.4537 102.367 31.324 102.416 31.1939C102.432 31.1452 102.432 31.1617 102.416 31.1939C102.432 31.1617 102.448 31.1452 102.464 31.1129C102.432 31.1778 102.481 31.0964 102.448 31.1291C102.416 31.1617 102.432 31.1452 102.464 31.1291C102.432 31.1452 102.432 31.1452 102.464 31.1291C102.497 31.1129 102.546 31.1129 102.497 31.1129H102.611H102.822C103.098 31.1129 103.374 31.1617 103.634 31.2104C103.812 31.2591 104.007 31.1617 104.056 30.9667C104.088 30.7557 103.991 30.5769 103.812 30.5281Z" fill="#272626"/>
<path d="M80.913 10.7793C81.6601 10.2432 82.6344 10.6818 83.284 11.1692C83.9824 11.7214 84.5346 12.4197 84.9245 13.2317C85.8178 14.9532 86.3048 17.0483 85.8666 18.9808C85.7526 19.4682 85.6229 19.9877 85.2491 20.345C84.8919 20.7022 84.4049 20.7836 83.9176 20.7836C83.6252 20.7836 83.5438 21.2544 83.8527 21.3032C84.3562 21.3845 84.8919 21.3197 85.3466 21.0921C85.834 20.8323 86.1264 20.345 86.3048 19.8415C86.6785 18.7859 86.6947 17.584 86.5324 16.4796C86.3535 15.3591 86.0289 14.2709 85.5254 13.2478C85.1194 12.3384 84.502 11.5264 83.7553 10.8768C82.9268 10.211 81.6275 9.62617 80.637 10.3246C80.3607 10.503 80.6206 10.9903 80.913 10.7793Z" fill="#272626"/>
<path d="M80.6369 10.6819C81.9684 11.429 83.0567 12.5495 83.7389 13.9136C84.0962 14.5959 84.3399 15.3431 84.4861 16.0902C84.6645 16.9022 84.681 17.7468 84.5509 18.5749C84.4047 19.3546 84.0475 20.1501 83.333 20.5238C82.6668 20.8811 81.9688 20.54 81.4814 20.053C80.8644 19.4356 80.5068 18.591 80.2309 17.779C79.9223 16.9344 79.6626 16.0576 79.4511 15.1807C79.2566 14.3849 79.2566 13.5564 79.4189 12.7444C79.5486 12.0948 79.76 10.8607 80.653 10.8768C80.978 10.8768 81.0106 10.4382 80.7182 10.3407C79.841 10.0322 79.1752 11.0552 78.9315 11.7536C78.623 12.6308 78.4929 13.5564 78.5582 14.4823C78.6391 15.4079 78.9154 16.3012 79.1913 17.1781C79.4837 18.1528 79.8249 19.1919 80.4258 20.0365C80.9619 20.7836 81.7738 21.4659 82.7482 21.4659C83.6741 21.4494 84.4535 20.7836 84.8433 19.9717C85.2815 19.0622 85.3303 18.0066 85.2328 17.0319C85.1357 16.155 84.9243 15.2943 84.5997 14.4658C83.8852 12.6957 82.6346 11.1205 80.9293 10.1945C80.6042 10.0322 80.3122 10.503 80.6369 10.6819Z" fill="#272626"/>
<path d="M83.1054 15.2618C82.6994 14.8884 82.3257 14.4985 81.9523 14.0925C81.5789 13.6865 81.2539 13.2479 80.8967 12.8419C80.7017 12.6144 80.3119 12.9068 80.4746 13.1666C80.7992 13.6213 81.1565 14.0599 81.5463 14.4659C81.9197 14.8719 82.3096 15.2779 82.7156 15.6516C82.9753 15.8788 83.3813 15.4893 83.1054 15.2618Z" fill="#272626"/>
<path d="M82.6831 16.756C82.5042 16.4801 82.3097 16.22 82.0983 15.9602C82.0008 15.8466 81.9033 15.7165 81.8058 15.6029C81.7088 15.4728 81.5787 15.3431 81.4325 15.2618C81.3511 15.213 81.2537 15.2295 81.1727 15.2944C81.1078 15.3592 81.0913 15.4567 81.1401 15.5381C81.2214 15.6843 81.3189 15.814 81.4325 15.9279L81.7249 16.2852L81.7897 16.3662L81.8058 16.3827L81.8385 16.4314C81.8872 16.4962 81.9359 16.5611 81.9686 16.6098C82.066 16.7399 82.147 16.8696 82.2445 16.9997C82.3093 17.1133 82.472 17.162 82.5856 17.0972C82.7157 17.0323 82.7644 16.8696 82.6831 16.756Z" fill="#272626"/>
<path d="M98.3718 10.9904C98.0146 10.5844 97.3162 10.5031 96.8127 10.5518C96.5042 10.5683 96.2118 10.6493 95.9359 10.7955C95.8219 10.8603 95.7244 10.9417 95.627 11.023C95.5782 11.0553 95.5295 11.0879 95.4647 11.104C95.4324 11.1205 95.3998 11.1205 95.3672 11.1366C95.335 11.1366 95.3024 11.1527 95.2697 11.1692C95.221 11.2015 95.2375 11.2015 95.3672 11.1692C95.221 11.1366 95.0913 11.218 95.0587 11.3638C95.0426 11.429 95.0587 11.4939 95.0748 11.5426C95.3185 11.9812 95.7897 11.7049 96.0656 11.4778C96.1305 11.3964 96.2279 11.3477 96.3093 11.2989C96.4228 11.2502 96.5368 11.2015 96.6504 11.1854C96.8941 11.1205 97.1539 11.104 97.3975 11.1366C97.4624 11.1527 97.5272 11.1688 97.5925 11.1854C97.6247 11.2015 97.6573 11.2015 97.6899 11.2176C97.7222 11.2341 97.7709 11.2502 97.7387 11.2341C97.7874 11.2502 97.8361 11.2828 97.8849 11.3151C97.9171 11.3316 97.9497 11.3638 97.982 11.3964C98.2095 11.6727 98.6155 11.2667 98.3718 10.9904Z" fill="#272626"/>
<path d="M84.4049 21.271C84.5185 21.5796 84.5998 21.9207 84.7134 22.2292C84.827 22.5377 84.941 22.8789 85.0384 23.1874C85.2656 23.8371 85.4766 24.5028 85.6877 25.169C85.8991 25.8183 86.1102 26.4679 86.3051 27.1176C86.5001 27.7673 86.6785 28.4495 86.9061 29.1153L87.1659 28.6445C86.7437 28.7907 86.3213 28.9369 85.8991 29.1314L86.4513 29.359C85.5254 26.6141 84.7134 23.8371 83.9989 21.0274C83.8688 20.54 83.1217 20.7515 83.2357 21.2384C83.9663 24.0481 84.7948 26.8091 85.7203 29.5539C85.7852 29.7489 85.9966 29.8785 86.1912 29.8137C86.2238 29.8137 86.2399 29.7976 86.2725 29.7811C86.6298 29.6188 86.987 29.4891 87.3608 29.3751C87.5557 29.3102 87.6854 29.1153 87.6206 28.9043C87.2794 27.5723 86.8247 26.2569 86.37 24.9576C86.1428 24.3079 85.9153 23.6747 85.6877 23.0412C85.5741 22.7166 85.4444 22.408 85.3305 22.083C85.2008 21.7584 85.0384 21.4334 84.9083 21.1087C84.7783 20.7837 84.2748 20.9464 84.4049 21.271Z" fill="#272626"/>
<path d="M85.3142 27.6698L85.2168 27.6859C85.2006 27.6859 85.0867 27.7024 85.1841 27.6859C85.1193 27.6859 85.0706 27.7024 85.0057 27.7024H84.8921C84.957 27.7024 84.9082 27.7024 84.8756 27.6859C84.8434 27.6859 84.8269 27.6698 84.7946 27.6698C84.8756 27.7024 84.8108 27.6698 84.7946 27.6537C84.7781 27.6372 84.762 27.6372 84.8108 27.6698C84.7946 27.6537 84.7781 27.6537 84.7781 27.6372C84.8269 27.6859 84.7946 27.6537 84.7781 27.621C84.8108 27.6859 84.7781 27.5884 84.7781 27.5884C84.7946 27.6698 84.7781 27.5723 84.7781 27.5562C84.7781 27.5075 84.7781 27.5075 84.7781 27.5562C84.7781 27.5397 84.7781 27.5075 84.7946 27.4913C84.7946 27.4587 84.8108 27.4261 84.8269 27.3939C84.8434 27.3613 84.8434 27.3286 84.8595 27.2964C84.8756 27.2638 84.8756 27.2638 84.8595 27.2964L84.8756 27.2477C84.9409 27.1176 85.0057 27.004 85.0871 26.8904L85.1193 26.8578C85.0871 26.8904 85.0871 26.8904 85.1193 26.8578L85.1841 26.7764L85.3303 26.6302C85.3791 26.5815 85.4278 26.5328 85.4927 26.5005C85.4278 26.5493 85.5092 26.5005 85.5092 26.484L85.6066 26.4192C85.7528 26.3217 85.8664 26.2081 85.9639 26.0619C86.0452 25.9318 85.9965 25.7534 85.8664 25.6721C85.8503 25.6559 85.8338 25.6559 85.8016 25.6398C85.574 25.6072 85.363 25.6559 85.168 25.7695C85.0057 25.867 84.8595 25.9971 84.7294 26.1433C84.4696 26.4192 84.2586 26.7603 84.145 27.1176C83.9988 27.5401 84.0636 28.0435 84.4696 28.2868C84.7781 28.4817 85.1841 28.433 85.5253 28.3355C85.7041 28.2707 85.7851 28.0596 85.7041 27.8973C85.6388 27.7346 85.4927 27.6537 85.3142 27.6698Z" fill="#272626"/>
<path d="M83.9989 21.9042C84.4863 23.0734 84.6647 24.3566 85.0546 25.5746C85.4118 26.6951 85.8991 27.7507 86.1102 28.9203C86.1916 29.4238 87.0684 29.1962 86.89 28.7089C86.8573 28.5627 86.7438 28.433 86.581 28.3843L86.7925 28.5953L86.776 28.5305C86.7273 28.3843 86.581 28.3029 86.4349 28.3517C86.3539 28.3843 86.289 28.4491 86.2564 28.5305L86.2238 28.5953L86.4349 28.3843C86.3052 28.4169 86.2077 28.4979 86.1589 28.6114L86.9061 28.8064C86.7599 27.5884 86.2077 26.484 85.8343 25.3148C85.6394 24.6977 85.4932 24.0642 85.3305 23.4472C85.152 22.7975 84.9083 22.164 84.616 21.563C84.5185 21.4007 84.3074 21.352 84.1451 21.4333C83.9663 21.5469 83.9015 21.758 83.9989 21.9042Z" fill="#272626"/>
<path d="M102.708 20.5726C102.708 23.9832 102.773 27.3938 103.358 30.7557C103.52 31.6974 103.731 32.6394 103.991 33.5654C104.121 34.0201 104.835 33.8252 104.706 33.3704C103.78 30.1221 103.569 26.7764 103.423 23.431C103.39 22.4889 103.358 21.5307 103.325 20.5726C103.325 20.1666 102.708 20.1666 102.708 20.5726Z" fill="#272626"/>
<path d="M95.3507 21.0435C95.8381 24.4054 96.0004 27.7995 95.8055 31.194C95.7567 32.1522 95.6754 33.1265 95.5618 34.0851C95.5618 34.2961 95.7406 34.4745 95.9517 34.4745C96.1627 34.4745 96.3416 34.2961 96.3416 34.0851C96.7149 30.6744 96.731 27.2312 96.3903 23.8044C96.2928 22.8302 96.1466 21.8555 95.9843 20.8812C95.9356 20.7024 95.7567 20.6049 95.5944 20.6536H95.5779C95.4156 20.7024 95.302 20.8812 95.3507 21.0435Z" fill="#272626"/>
<path d="M91.5506 0.287709C91.7294 0.791167 92.0867 1.21327 92.5575 1.47345C93.0936 1.74935 93.6945 1.86293 94.2954 1.79808C94.9773 1.70061 95.6596 1.52218 96.3093 1.27851C96.9263 1.06746 97.5433 0.823788 98.193 0.775053C99.4436 0.677584 100.629 1.29462 101.62 2.00913C103.536 3.40592 104.852 5.46849 105.307 7.80735C105.388 8.24556 106.054 8.05102 105.956 7.62852C105.485 5.43587 104.3 3.43854 102.578 1.99302C101.652 1.21327 100.581 0.547495 99.411 0.238975C98.7613 0.0766578 98.0794 0.060544 97.4298 0.19024C96.7801 0.32033 96.1631 0.564002 95.5295 0.775053C94.8637 1.00222 94.1005 1.21327 93.386 1.06746C92.8821 0.969991 92.2164 0.677584 92.0053 0.15762C91.8917 -0.11828 91.4205 -0.00469714 91.5506 0.287709Z" fill="#272626"/>
<path d="M106.2 11.9812C106.281 12.452 106.2 12.9555 106.135 13.4267C106.086 13.9624 105.973 14.4984 105.81 15.018C105.615 15.5541 105.388 16.0737 105.111 16.5771C104.819 17.1458 104.51 17.6815 104.153 18.2015C103.471 19.1758 102.594 20.1017 101.506 20.6213C100.418 21.1409 99.1835 21.1735 98.0308 20.9947C96.8289 20.8323 95.6758 20.4425 94.6202 19.8415C93.6132 19.241 92.7521 18.4451 92.0864 17.5031C90.5434 15.343 90.0887 12.5495 90.5599 9.96733C90.982 7.67721 92.1351 5.40359 94.068 4.0233C94.3116 3.84448 94.5549 3.69828 94.8151 3.55208C95.2372 3.32491 94.8638 2.69136 94.4413 2.91892C92.2003 4.153 90.7061 6.45924 90.0564 8.89557C89.3254 11.64 89.5691 14.726 91.0307 17.2107C92.33 19.4682 94.5388 21.0599 97.0722 21.5634C98.3554 21.8558 99.7035 21.9367 100.986 21.5956C102.253 21.2548 103.341 20.4102 104.186 19.4033C105.014 18.3638 105.696 17.2268 106.184 15.9927C106.654 14.9044 106.865 13.7191 106.768 12.5495C106.752 12.3223 106.736 12.0947 106.687 11.8676C106.622 11.5426 106.151 11.6726 106.2 11.9812Z" fill="#272626"/>
<path d="M94.3278 3.87713C94.7338 3.61734 95.1885 3.43852 95.6594 3.37367C95.7734 3.35756 95.9031 3.35756 96.017 3.34105H96.1467C96.098 3.34105 96.2603 3.35756 96.2281 3.35756C96.1632 3.37367 96.2442 3.17873 96.1954 3.19485C96.1145 3.21135 96.0005 3.30882 95.9196 3.32494C95.5136 3.47114 95.1076 3.61734 94.88 4.02333C94.6851 4.44543 94.7012 4.93278 94.9449 5.32265C95.5297 6.29695 96.715 6.10201 97.6571 6.05328C98.6153 5.98843 99.6548 5.98843 100.548 6.41053C101.522 6.88176 102.302 7.72636 103.065 8.4731C103.26 8.65192 103.618 8.40825 103.455 8.18108C102.854 7.31998 102.205 6.508 101.295 5.93969C100.385 5.3875 99.2814 5.22519 98.1932 5.25741C97.6571 5.27392 97.1049 5.35488 96.5692 5.35488C96.1793 5.35488 95.7081 5.2413 95.5458 4.83531C95.481 4.67299 95.481 4.51068 95.5297 4.34797C95.6107 4.21827 95.7407 4.1208 95.8869 4.08818C96.2929 3.92586 96.91 3.74704 96.8939 3.19485C96.8612 2.56169 96.0819 2.54558 95.6271 2.59431C95.0262 2.65916 94.4414 2.87021 93.938 3.21135C93.5646 3.50376 93.9219 4.13691 94.3278 3.87713Z" fill="#272626"/>
<path d="M99.3464 21.6608C99.265 22.1643 99.1675 22.6677 99.0378 23.1551C99.0052 23.2199 98.9891 23.2848 98.9891 23.35C98.9565 23.4149 98.9891 23.3988 99.0866 23.3013C99.2163 23.236 99.2328 23.2038 99.1514 23.2199H98.9404H98.7454C98.5183 23.2199 98.2907 23.236 98.0796 23.2199C98.0309 23.2199 97.9822 23.2199 97.9496 23.2038C98.0309 23.2199 97.8847 23.1873 97.8686 23.1873L97.8034 23.1712C97.836 23.1873 97.836 23.1873 97.8034 23.1712C97.7711 23.1551 97.6898 23.1063 97.7546 23.1386C97.7224 23.1225 97.7224 23.1063 97.6898 23.0576C97.6572 22.9924 97.6572 23.0089 97.6737 23.0411C97.6572 23.0089 97.6572 22.9924 97.641 22.9601C97.6084 22.8627 97.5762 22.7491 97.5597 22.6516C97.5109 22.4402 97.4787 22.213 97.4622 21.9855C97.4787 21.7257 97.4622 21.4659 97.43 21.2061C97.3812 21.0438 97.2351 20.9463 97.0727 20.9298C96.9104 20.9298 96.7642 21.0438 96.7155 21.2061C96.6502 21.4498 96.6341 21.6934 96.6668 21.9367C96.6829 22.1804 96.7155 22.408 96.7477 22.6516C96.8291 23.0898 96.9592 23.6098 97.3651 23.8535C97.7224 24.0645 98.1771 24.0319 98.5831 24.0319H98.9077C99.0539 24.048 99.184 24.0319 99.3302 24.0158C99.6226 23.9344 99.7036 23.6908 99.7685 23.4149C99.8824 22.8788 99.9634 22.3266 100.045 21.7909C100.045 21.596 99.8824 21.4337 99.6875 21.4498C99.5087 21.4172 99.379 21.5146 99.3464 21.6608Z" fill="#272626"/>
<path d="M98.8589 23.918C99.086 25.3309 99.3462 26.7442 99.606 28.141C99.6708 28.4495 99.7683 28.7906 99.7196 29.1153C99.6547 29.3916 99.5085 29.6675 99.3297 29.8785C98.9402 30.3985 98.5177 30.8858 98.063 31.3567H98.6152C98.1766 30.8693 97.8032 30.3336 97.4621 29.765C97.3324 29.5213 97.1697 29.2941 97.1697 29.0017C97.2023 28.6767 97.2672 28.3359 97.3646 28.0274L98.4041 23.8209C98.5338 23.3336 97.7706 23.1225 97.6409 23.6099C97.2672 25.1202 96.8938 26.6302 96.52 28.1249C96.4064 28.4821 96.3577 28.872 96.3903 29.245C96.4552 29.57 96.5853 29.8785 96.7637 30.1548C97.1209 30.7719 97.5595 31.3567 98.0304 31.8928C98.1931 32.039 98.4368 32.039 98.5826 31.8928C99.086 31.3893 99.5573 30.8532 99.9794 30.2684C100.19 30.0086 100.337 29.7001 100.434 29.3916C100.499 29.0178 100.483 28.6283 100.402 28.2546C100.126 26.7442 99.8332 25.2334 99.5246 23.7396C99.4598 23.5611 99.2649 23.4476 99.0864 23.5124C98.9076 23.5611 98.8101 23.7561 98.8428 23.9341V23.918H98.8589Z" fill="#272626"/>
<path d="M97.966 34.3608C97.9011 35.3029 97.8036 36.245 97.7549 37.2031C97.7062 38.1613 97.6901 39.0708 97.6901 39.9963C97.6901 40.9223 97.7062 41.8805 97.771 42.8221C97.8036 43.2934 97.8359 43.7481 97.8846 44.2189C97.9011 44.4465 97.9333 44.6737 97.9498 44.9012C97.9986 45.0961 98.0147 45.3072 98.0147 45.5182C97.9821 45.6645 97.7871 45.7293 97.6574 45.778C97.4138 45.8916 97.1701 45.9891 96.9264 46.1031L96.228 46.4116C95.9521 46.5413 95.7085 46.6065 95.5296 46.8663C95.4487 47.0286 95.4974 47.2236 95.6597 47.3049C95.6758 47.321 95.7085 47.321 95.7246 47.3371C95.8546 47.3698 96.0009 47.3698 96.1305 47.321C96.2445 47.2884 96.342 47.2236 96.4556 47.1909L97.1862 46.8663C97.5761 46.6875 98.0308 46.5578 98.3719 46.3141C98.8106 46.0056 98.8266 45.567 98.7618 45.0796C98.6966 44.5927 98.6478 44.1215 98.6156 43.6506C98.4533 41.6855 98.4207 39.7039 98.4368 37.7388C98.4533 36.6183 98.4046 35.4978 98.4207 34.3769C98.4207 34.2634 98.3232 34.1498 98.1931 34.1498C98.0795 34.1498 97.9821 34.2472 97.966 34.3608Z" fill="#272626"/>
<path d="M101.62 34.2799C101.49 35.1732 101.36 36.0666 101.263 36.976C101.165 37.8854 101.132 38.7623 101.084 39.6395C101.035 40.5163 101.052 41.4258 101.052 42.3191C101.052 43.2124 101.068 44.1219 101.149 45.0152C101.149 45.2424 101.23 45.4699 101.344 45.6484C101.49 45.8433 101.669 45.9895 101.863 46.1196L103.146 46.9964C103.341 47.11 103.585 47.0452 103.699 46.8502C103.812 46.6553 103.747 46.4116 103.552 46.298L102.513 45.5835C102.351 45.486 102.205 45.3886 102.075 45.2589C101.993 45.1449 101.944 45.0152 101.961 44.869C101.912 44.0244 101.88 43.1637 101.88 42.3191C101.847 40.6138 101.896 38.9085 102.01 37.2197C102.075 36.2615 102.091 35.3029 102.188 34.3612C102.205 34.0362 101.669 33.9714 101.62 34.2799Z" fill="#272626"/>
<path d="M59.4323 37.7723C59.25 38.6059 59.1199 39.5959 59.7188 40.1953C60.3182 40.7946 61.204 40.7164 62.0117 40.6123L71.2602 39.4918C72.0156 39.3876 72.7973 39.2835 73.3707 38.8146C74.0738 38.2152 74.2562 37.2512 74.4126 36.3394L75.8715 27.4815C75.9757 26.9344 76.0539 26.3351 75.7933 25.8143C75.3767 24.9803 74.2566 24.8243 73.3444 24.8243C70.192 24.798 67.04 25.215 64.0177 26.0226C63.4183 26.1527 62.8453 26.3351 62.2982 26.5438C61.8553 26.7521 61.7252 27.1168 61.6206 27.5338C61.2559 29.1227 60.9175 30.7381 60.5787 32.3274C60.1618 34.151 59.797 35.9746 59.4323 37.7723Z" fill="#0C58A6"/>
<path d="M61.0217 27.4033C60.3441 29.8263 59.7451 32.3011 59.2763 34.7763C59.0157 36.0529 58.8333 37.3553 58.6769 38.6319C58.5728 39.1793 58.6246 39.7524 58.8593 40.2735C59.1199 40.7424 59.5368 41.1071 60.0317 41.2895C60.787 41.576 61.6989 41.3413 62.4546 41.2372L66.4147 40.7164C67.6912 40.56 68.9937 40.3777 70.2702 40.2212L71.3648 40.0911L71.4949 40.0648C71.6513 40.0389 71.7032 40.0389 71.5208 40.0648H71.5471C71.9378 40.0129 72.3025 39.9088 72.6672 39.7783C73.006 39.7001 73.3185 39.57 73.6054 39.3354C73.8659 39.0229 74.1002 38.6841 74.2825 38.3454C74.4912 37.9287 74.6736 37.4595 74.7778 36.9906C74.9601 36.3653 75.1161 35.7141 75.2985 35.0888C75.9238 32.6399 76.3667 30.165 76.7837 27.6898C76.8879 27.0909 77.0443 26.4915 76.8619 25.8921C76.7055 25.3973 76.3927 24.9544 75.9501 24.6679C75.5072 24.3814 74.9861 24.2509 74.4649 24.3291C73.7614 24.4073 73.0583 24.5115 72.3548 24.6156C69.6972 24.9285 67.04 25.215 64.3824 25.6579C63.6793 25.7621 62.9758 25.8921 62.2723 25.9967C61.7771 26.0749 61.9857 26.8303 62.4806 26.7521C65.0077 26.3351 67.5871 26.1527 70.1142 25.8403C71.4166 25.6838 72.7195 25.5274 73.996 25.3714C74.4649 25.3191 74.9597 25.215 75.3767 25.5015C75.6896 25.7098 75.8719 26.0745 75.8719 26.4656C75.8196 27.0645 75.7155 27.6639 75.585 28.2632C75.4809 28.8622 75.3767 29.4615 75.2726 30.0605C75.0643 31.2069 74.8296 32.3534 74.5691 33.4994C74.2825 34.6981 73.9697 35.8964 73.6313 37.0688C73.579 37.1989 73.5531 37.3553 73.5008 37.4858C73.4489 37.6159 73.5272 37.4595 73.4749 37.564C73.3967 37.6941 73.2925 37.9024 73.1884 38.0588C73.0842 38.2153 73.006 38.3713 72.9015 38.5018C72.8755 38.5277 72.7973 38.6582 72.8496 38.58C72.8233 38.6059 72.8233 38.6059 72.7973 38.6319C72.9797 38.5277 72.8237 38.6059 72.7973 38.6059C72.8755 38.6059 72.7454 38.6319 72.6932 38.6319L72.4326 38.736C72.2243 38.8142 71.9897 38.8665 71.7814 38.9184L71.5471 38.9706C71.4426 38.9966 71.4689 38.9966 71.5471 38.9966H71.4949C71.2343 39.0229 70.9737 39.0489 70.7131 39.1007L67.3265 39.5437C65.2423 39.8042 63.1841 40.0908 61.0999 40.3513C60.5528 40.4555 59.9794 40.169 59.7451 39.6482C59.5628 39.2053 59.7192 38.6319 59.7711 38.1889C59.8493 37.59 59.9275 37.0165 60.0317 36.4176C60.4223 33.9946 60.8916 31.6239 61.4906 29.2269C61.621 28.7058 61.7511 28.1587 61.9075 27.6375C61.9857 27.4033 61.8293 27.1427 61.5951 27.0645C61.3605 26.9863 61.0999 27.1427 61.0217 27.377V27.4033Z" fill="#272626"/>
<path d="M63.3364 30.7259L63.6591 30.6826L64.3669 32.2622L64.6499 30.549L64.9242 30.5121L65.6505 32.0896L65.9205 30.3777L66.2377 30.3352L65.8824 32.5349L65.5656 32.5774L64.8539 31.0167L64.578 32.7106L64.2671 32.7523L63.3364 30.7259Z" fill="white"/>
<path d="M66.4976 30.2542L66.7903 30.2145L66.9126 31.1204C66.9684 30.9188 67.1354 30.7922 67.3622 30.7616C67.7061 30.7152 67.9631 30.9329 68.0119 31.2945L68.138 32.2307L67.8452 32.2704L67.7265 31.392C67.6943 31.1503 67.53 31.0064 67.3158 31.0355C67.0776 31.0673 66.9342 31.2835 66.97 31.5492L67.0812 32.3733L66.788 32.4126L66.4976 30.2542Z" fill="white"/>
<path d="M68.4148 31.7509C68.3755 31.4609 68.5866 31.2451 68.9458 31.1967L69.2626 31.1539C69.3321 31.1445 69.36 31.1012 69.3533 31.0497C69.3282 30.8654 69.1784 30.7562 68.943 30.788C68.7316 30.8163 68.5952 30.9668 68.607 31.1252L68.3354 31.1618C68.3201 30.8627 68.5579 30.6001 68.9234 30.551C69.316 30.4983 69.6033 30.6897 69.6485 31.0277L69.781 32.0091L69.4881 32.0488L69.4547 31.8012C69.4048 31.9769 69.2256 32.1085 68.9988 32.1392C68.6852 32.1816 68.4521 32.0252 68.4148 31.7509ZM69.022 31.8991C69.2999 31.8617 69.4355 31.6593 69.3981 31.3818L69.3934 31.3488L69.0008 31.4015C68.8047 31.4278 68.6856 31.545 68.7068 31.7053C68.7261 31.8468 68.8503 31.9226 69.022 31.8991Z" fill="white"/>
<path d="M70.2656 31.6585L70.1328 30.6708L69.8215 30.7129L69.7874 30.459L70.0986 30.4173L70.0341 29.9402L70.327 29.9005L70.391 30.3776L70.8414 30.3171L70.8756 30.5706L70.4252 30.6315L70.562 31.6459L71.012 31.585L71.0462 31.8389L70.5844 31.901C70.406 31.9253 70.29 31.8397 70.2656 31.6585Z" fill="white"/>
<path d="M62.2532 33.6755L62.5794 33.6311L62.6289 33.9998L62.3027 34.0438L62.2532 33.6755ZM62.3573 34.3099L62.6501 34.2702L62.8553 35.7919L62.5621 35.8316L62.3573 34.3099Z" fill="white"/>
<path d="M63.0966 35.2554L63.3713 35.2181C63.4134 35.3914 63.5533 35.4739 63.7525 35.4468C63.9243 35.424 64.0265 35.3148 64.0115 35.2028C63.9569 34.7983 63.1406 35.2861 63.0534 34.6372C63.018 34.3747 63.218 34.1691 63.5375 34.1263C63.8787 34.0803 64.1397 34.2387 64.1939 34.5236L63.9192 34.5606C63.8744 34.3884 63.6987 34.3409 63.569 34.3586C63.409 34.3798 63.3139 34.4729 63.33 34.5908C63.3807 34.9681 64.2014 34.4639 64.2949 35.1587C64.3322 35.4362 64.1267 35.6453 63.7855 35.6909C63.4263 35.7392 63.1606 35.5726 63.0966 35.2554Z" fill="white"/>
<path d="M65.1279 33.3342L65.4781 33.287L66.7149 34.7774L66.4952 33.1499L66.8097 33.1074L67.0946 35.2207L66.7472 35.2675L65.508 33.7814L65.7265 35.4054L65.4129 35.4475L65.1279 33.3342Z" fill="white"/>
<path d="M67.9494 33.5316C68.4203 33.4683 68.7162 33.7698 68.7681 34.1561C68.7736 34.1954 68.7771 34.2442 68.7779 34.2717L67.6154 34.4285C67.6783 34.7119 67.8921 34.8832 68.1573 34.8474C68.381 34.8172 68.5126 34.7009 68.5319 34.5228L68.8247 34.4835C68.8125 34.8054 68.5653 35.0471 68.1911 35.0978C67.7199 35.1611 67.3772 34.8294 67.3206 34.4065C67.2628 33.9812 67.4818 33.5953 67.9494 33.5316ZM68.4588 34.0964C68.4093 33.8665 68.232 33.7332 67.9813 33.767C67.7427 33.7993 67.6063 33.9529 67.5953 34.2127L68.4588 34.0964Z" fill="white"/>
<path d="M68.976 34.9673L69.4213 34.096L68.8164 33.4392L69.1395 33.396L69.5502 33.8452L69.8245 33.3036L70.1476 33.26L69.738 34.0535L70.3979 34.7759L70.087 34.8175L69.6115 34.3011L69.2868 34.9256L68.976 34.9673Z" fill="white"/>
<path d="M70.72 34.4469L70.5871 33.4589L70.2759 33.5013L70.2417 33.2474L70.5529 33.2058L70.4885 32.7283L70.7813 32.689L70.8458 33.1661L71.2958 33.1056L71.33 33.3591L70.8799 33.42L71.0167 34.4344L71.4663 34.3734L71.5005 34.6273L71.0387 34.6894C70.8603 34.7134 70.7444 34.6281 70.72 34.4469Z" fill="white"/>
<path d="M72.5046 32.906C72.479 32.7161 72.3261 32.61 72.1088 32.6399C71.8915 32.669 71.7339 32.8219 71.7484 33.0663L71.4434 33.1076C71.4132 32.724 71.6902 32.4284 72.073 32.3742C72.4743 32.3168 72.7644 32.5082 72.8111 32.8549C72.8878 33.4232 72.2809 33.4342 72.3348 33.8359L72.356 33.9927L72.066 34.032L72.0436 33.8657C71.9701 33.319 72.5612 33.3261 72.5046 32.906ZM72.0789 34.2206L72.4051 34.177L72.4484 34.4997L72.1226 34.5433L72.0789 34.2206Z" fill="white"/>
</svg>
